<?xml version="1.0" encoding="utf-8" ?>
<svg baseProfile="full" height="200mm" version="1.1" viewBox="0,0,200,200" width="200mm" xmlns="http://www.w3.org/2000/svg" xmlns:ev="http://www.w3.org/2001/xml-events" xmlns:xlink="http://www.w3.org/1999/xlink"><defs /><rect fill="#1a1a1a" height="200" width="200" x="0" y="0" /><text alignment-baseline="middle" fill="#e1ed5e" style="dominant-baseline: central; font-size:9.0px; font-family:Arial;" text-anchor="middle" x="100.0" y="100.0">2024</text><line stroke="#e1ed5e" stroke-width="0.3" x1="100.0" x2="100.0" y1="15.0" y2="10.0" /><path d="M 100.0 14.0 a86.0,86.0 0 0,1 42.35913384403234,11.155469271406648" fill="none" id="id49" stroke="none" /><text fill="#e1ed5e" style="font-size:6.75px; font-family:Arial;" text-anchor="middle"><textPath startOffset="22.145653131862478" xlink:href="#id49">January</textPath></text><path d="M 102.87502721639298 79.19773525538626 l 5.7868782567217 -41.87096833545911 a63.26897147207556,63.26897147207556 0 0,0 1.0745930341958634,0.15792817038332516 l -6.504796396525245 41.765459091776904" fill="#54ff2b" stroke="none" /><path d="M 104.29559338865022 79.4440306129975 l 8.77295870097537 -41.981783230966684 a63.88863401439704,63.88863401439704 0 0,0 1.0716180024159907,0.23355415595779805 l -9.492339120010493 41.824997616875166" fill="#4cff2c" stroke="none" /><path d="M 105.69591212413111 79.78721728523813 l 14.122573435793242 -50.11603093762653 a73.0678752916855,73.0678752916855 0 0,0 1.2043673070841183,0.350573770454986 l -14.980800755258965 49.866213472869035" fill="#3bff9b" stroke="none" /><path d="M 107.40779381753099 80.34994680014964 l 13.769208846311871 -36.52446234526244 a60.033670873540025,60.033670873540025 0 0,0 0.961189777715175,0.37180885472841957 l -14.394170886520572 36.28271360239598" fill="#81ff25" stroke="none" /><path d="M 110.02825361518725 81.54914285379988 l 16.05588199713446 -29.541014463049404 a54.62235688068284,54.62235688068284 0 0,0 0.82000073634509,0.45484058570929725 l -16.56062692163565 29.26104096190696" fill="#d1ff1c" stroke="none" /><line stroke="#e1ed5e" stroke-width="0.3" x1="143.13028292997686" x2="145.6673583964461" y1="26.7553504044142" y2="22.446841604673864" /><path d="M 143.63769802327073 25.89364864446614 a86.0,86.0 0 0,1 29.32050498858742,28.57503671076993" fill="none" id="id50" stroke="none" /><text fill="#e1ed5e" style="font-size:6.75px; font-family:Arial;" text-anchor="middle"><textPath startOffset="20.669276256404974" xlink:href="#id50">February</textPath></text><path d="M 111.27062007382361 82.28071324371311 l 22.725003973065892 -35.727480768492065 a63.34239822729496,63.34239822729496 0 0,0 0.9124755024311901,0.5914555964596333 l -23.33496510775409 35.33211133032854" fill="#53ff2b" stroke="none" /><path d="M 116.57777611688842 87.10902102172516 l 33.08218607533775 -25.724907987996236 a62.9070629669289,62.9070629669289 0 0,0 0.6555755400362147,0.8581694261649584 l -33.518913592728275 25.153217648590395" fill="#59ff2a" stroke="none" /><path d="M 117.62189284568427 88.57770195909679 l 17.130445460434952 -11.103747783283474 a41.4143424216336,41.4143424216336 0 0,0 0.3815686938825476,0.5998893636588531 l -17.31853184594339 10.808044744945947" fill="#ff4c07" stroke="none" /><line stroke="#e1ed5e" stroke-width="0.3" x1="172.87174338648825" x2="177.1583165268699" y1="56.24261187166439" y2="53.66864786411523" /><path d="M 173.72905801456457 55.72781907015455 a86.0,86.0 0 0,1 12.242430191666344,42.057860355516425" fill="none" id="id51" stroke="none" /><text fill="#e1ed5e" style="font-size:6.75px; font-family:Arial;" text-anchor="middle"><textPath startOffset="22.145653131862474" xlink:href="#id51">March</textPath></text><path d="M 118.70294669586156 90.45014215332178 l 36.06068104784109 -18.412840685552858 a61.48957174070475,61.48957174070475 0 0,0 0.4719473576066627,0.9442108602148078 l -36.371448318659496 17.7910979691743" fill="#6cff28" stroke="none" /><path d="M 119.83427380445688 93.10060997987247 l 37.91487767875028 -13.18876260608769 a61.1432610592903,61.1432610592903 0 0,0 0.3363303821407025,0.9943010128065161 l -38.135693482463346 12.535959918807013" fill="#71ff27" stroke="none" /><path d="M 120.26092885502905 94.47779374421319 l 60.782786565087164 -16.56661876736044 a84.0,84.0 0 0,0 0.3672420767810789,1.3944779825088056 l -61.058218122672976 15.520760280478832" fill="#4dd2ff" stroke="none" /><path d="M 120.43855184770803 95.1765574152323 l 40.47001772794409 -9.550813989649647 a62.581731358434276,62.581731358434276 0 0,0 0.23777821082471629,1.0476946699179464 l -40.628006800326474 8.854684985792675" fill="#5dff2a" stroke="none" /><path d="M 120.65975698304385 96.23510406497455 l 40.362657029221594 -7.3554206615722775 a62.027384702991434,62.027384702991434 0 0,0 0.1819032289244343,1.049169485534153 l -40.48297507563826 6.661458143117532" fill="#65ff29" stroke="none" /><path d="M 120.7213421655516 96.59031103205396 l 40.61668308194911 -6.683459744674119 a62.16289079666503,62.16289079666503 0 0,0 0.16422402027480681,1.054436016527492 l -40.725428594362185 5.985235546215185" fill="#63ff29" stroke="none" /><path d="M 120.77682067341334 96.94652285012252 l 33.5884496826284 -4.936345421557034 a54.94924827155068,54.94924827155068 0 0,0 0.1291450815890493,0.9344294768279516 l -33.66823928077266 4.359027636528996" fill="#ccff1d" stroke="none" /><path d="M 120.82617615685814 97.30363454192243 l 19.36950011235887 -2.5077695804467433 a40.531165937323976,40.531165937323976 0 0,0 0.08341297301307268,0.6907790747921255 l -19.409695171631608 2.174896828731205" fill="#ff3c05" stroke="none" /><path d="M 120.9064616781168 98.02013634271609 l 16.333647932912474 -1.5468134412765397 a37.406726870965144,37.406726870965144 0 0,0 0.05505268639602888,0.6397956656484733 l -16.357794242006246 1.2661967282524045" fill="#ff0000" stroke="none" /><path d="M 120.98066250479742 99.09900007780936 l 20.041304477622226 -0.8606598466949096 a41.05977618360867,41.05977618360867 0 0,0 0.02419655152911989,0.7044561970168357 l -20.053125716148195 0.5164973851139539" fill="#ff4606" stroke="none" /><line stroke="#e1ed5e" stroke-width="0.3" x1="184.99686870605535" x2="189.99668451229388" y1="99.2704041080226" y2="99.22748670261217" /><path d="M 185.99683186730306 99.26182062694052 a86.0,86.0 0 0,1 -10.086455211305974,41.156179273409016" fill="none" id="id52" stroke="none" /><text fill="#e1ed5e" style="font-size:6.75px; font-family:Arial;" text-anchor="middle"><textPath startOffset="21.40746469413373" xlink:href="#id52">April</textPath></text><path d="M 120.99922638620191 100.18025310272382 l 19.79228525327382 0.169892964687586 a40.7930144032285,40.7930144032285 0 0,0 -0.012021445710994588,0.7001889451696104 l -19.78645237596416 -0.5096288258262675" fill="#ff4106" stroke="none" /><path d="M 120.86939407059847 102.33845913500097 l 31.10643632945335 3.4855410725324707 a52.301108250134625,52.301108250134625 0 0,0 -0.10763546594658628,0.8913760641255459 l -31.042018777247097 -4.019010813581425" fill="#f6ff19" stroke="none" /><path d="M 120.77682067341334 103.0534771498775 l 19.564838395793643 2.875357491969296 a40.7749989168178,40.7749989168178 0 0,0 -0.10772076656994331,0.6916445950429906 l -19.51259613708543 -3.2107902689437373" fill="#ff4006" stroke="none" /><path d="M 120.592083275326 104.11899336999214 l 34.42614691831393 6.886193544138399 a56.10810808301508,56.10810808301508 0 0,0 -0.19702573006454815,0.9428394424760088 l -34.302863477425014 -7.476149437899817" fill="#bbff1f" stroke="none" /><path d="M 120.16314734710363 105.8691983318838 l 19.90993018572245 5.795490506632185 a41.736273296154394,41.736273296154394 0 0,0 -0.20614475502911309,0.686188844543941 l -19.807509110689708 -6.13641695476685" fill="#ff5207" stroke="none" /><path d="M 119.83427380445688 106.89939002012753 l 39.05631121855455 13.585812442688962 a62.35178044206213,62.35178044206213 0 0,0 -0.3603334034240974,1.0079166603567538 l -38.8173376450865 -14.254264059426637" fill="#60ff29" stroke="none" /><path d="M 119.4528033332814 107.91128576633889 l 18.26134456474101 7.426729857597109 a40.71377745866886,40.71377745866886 0 0,0 -0.26885470022906555,0.6451534074327383 l -18.131164019975458 -7.739115774471125" fill="#ff3f05" stroke="none" /><path d="M 118.70294669586154 109.54985784667822 l 17.383318194737303 8.876046131278848 a40.51829773274491,40.51829773274491 0 0,0 -0.32162253766281834,0.6167536234896293 l -17.228387588099537 -9.173145997872979" fill="#ff3b05" stroke="none" /><line stroke="#e1ed5e" stroke-width="0.3" x1="174.33088141563837" x2="178.70328620479359" y1="141.23008692659167" y2="143.65538615756765" /><path d="M 175.20536237346943 141.71514677278685 a86.0,86.0 0 0,1 -30.301960400862466,31.631185727798858" fill="none" id="id53" stroke="none" /><text fill="#e1ed5e" style="font-size:6.75px; font-family:Arial;" text-anchor="middle"><textPath startOffset="22.145653131862474" xlink:href="#id53">May</textPath></text><path d="M 117.423217284605 111.72311816256416 l 16.81219522079022 11.31199524898127 a41.263542253390355,41.263542253390355 0 0,0 -0.40047301936169705,0.5843021035298979 l -16.6155324646132 -11.598932087581211" fill="#ff4906" stroke="none" /><path d="M 117.01052211995028 112.31430620078461 l 16.604234694417727 12.020185436691863 a41.49842598151781,41.49842598151781 0 0,0 -0.42268711942365034,0.5734562569099507 l -16.395445555410248 -12.30344800287069" fill="#ff4e07" stroke="none" /><path d="M 116.57777611688842 112.89097897827486 l 15.833268654250109 12.312045472214178 a41.05689058621821,41.05689058621821 0 0,0 -0.437419270362546,0.5526649587428996 l -15.619582953246 -12.58203037487176" fill="#ff4506" stroke="none" /><path d="M 116.35404254752997 113.17365903436017 l 32.20758727707165 25.944152454930563 a62.35731766948707,62.35731766948707 0 0,0 -0.6786649189099334,0.8278608516978689 l -31.757475538923092 -26.493215588326922" fill="#60ff29" stroke="none" /><line stroke="#e1ed5e" stroke-width="0.3" x1="143.1302829299769" x2="145.66735839644613" y1="173.24464959558577" y2="177.55315839532614" /><path d="M 143.63769802327073 174.10635135553383 a86.0,86.0 0 0,1 -40.68552437913181,11.842963189579606" fill="none" id="id54" stroke="none" /><text fill="#e1ed5e" style="font-size:6.75px; font-family:Arial;" text-anchor="middle"><textPath startOffset="21.407464694133747" xlink:href="#id54">June</textPath></text><line stroke="#e1ed5e" stroke-width="0.3" x1="101.45913802915013" x2="101.54496967792366" y1="184.9874750549273" y2="189.98673829345242" /><path d="M 101.47630435890484 185.9873277026323 a86.0,86.0 0 0,1 -42.54439059252881,-10.42667462771756" fill="none" id="id55" stroke="none" /><text fill="#e1ed5e" style="font-size:6.75px; font-family:Arial;" text-anchor="middle"><textPath startOffset="22.145653131862474" xlink:href="#id55">July</textPath></text><line stroke="#e1ed5e" stroke-width="0.3" x1="58.13341422392154" x2="55.67067388415222" y1="173.97424548756322" y2="178.32567169271397" /><path d="M 57.64086615596768 174.84453072859336 a86.0,86.0 0 0,1 -31.369924170532247,-30.572349798747897" fill="none" id="id56" stroke="none" /><text fill="#e1ed5e" style="font-size:6.75px; font-family:Arial;" text-anchor="middle"><textPath startOffset="22.145653131862474" xlink:href="#id56">August</textPath></text><line stroke="#e1ed5e" stroke-width="0.3" x1="26.387840678322732" x2="22.057713659400548" y1="142.50000000000003" y2="145.00000000000006" /><path d="M 25.521815274538298 143.00000000000003 a86.0,86.0 0 0,1 -11.493303480769221,-40.785679425670985" fill="none" id="id57" stroke="none" /><text fill="#e1ed5e" style="font-size:6.75px; font-family:Arial;" text-anchor="middle"><textPath startOffset="21.40746469413373" xlink:href="#id57">September</textPath></text><line stroke="#e1ed5e" stroke-width="0.3" x1="15.003131293944662" x2="10.003315487706104" y1="100.72959589197737" y2="100.7725132973878" /><path d="M 14.003168132696942 100.73817937305945 a86.0,86.0 0 0,1 10.791469493833604,-42.45332614584628" fill="none" id="id58" stroke="none" /><text fill="#e1ed5e" style="font-size:6.75px; font-family:Arial;" text-anchor="middle"><textPath startOffset="22.145653131862435" xlink:href="#id58">October</textPath></text><line stroke="#e1ed5e" stroke-width="0.3" x1="26.387840678322718" x2="22.05771365940052" y1="57.49999999999999" y2="54.99999999999999" /><path d="M 25.521815274538284 56.99999999999999 a86.0,86.0 0 0,1 29.574782752854787,-30.34633250058573" fill="none" id="id59" stroke="none" /><text fill="#e1ed5e" style="font-size:6.75px; font-family:Arial;" text-anchor="middle"><textPath startOffset="21.40746469413373" xlink:href="#id59">November</textPath></text><line stroke="#e1ed5e" stroke-width="0.3" x1="56.869717070023135" x2="54.33264160355391" y1="26.7553504044142" y2="22.446841604673864" /><path d="M 56.362301976729285 25.89364864446614 a86.0,86.0 0 0,1 42.16139366436587,-11.88097634709845" fill="none" id="id60" stroke="none" /><text fill="#e1ed5e" style="font-size:6.75px; font-family:Arial;" text-anchor="middle"><textPath startOffset="22.145653131862474" xlink:href="#id60">December</textPath></text></svg>