<?xml version="1.0" encoding="utf-8" ?>
<svg baseProfile="full" height="200mm" version="1.1" viewBox="0,0,200,200" width="200mm" xmlns="http://www.w3.org/2000/svg" xmlns:ev="http://www.w3.org/2001/xml-events" xmlns:xlink="http://www.w3.org/1999/xlink"><defs /><rect fill="#1a1a1a" height="200" width="200" x="0" y="0" /><text alignment-baseline="middle" fill="#e1ed5e" style="dominant-baseline: central; font-size:9.0px; font-family:Arial;" text-anchor="middle" x="100.0" y="100.0">2025</text><line stroke="#e1ed5e" stroke-width="0.3" x1="100.0" x2="100.0" y1="15.0" y2="10.0" /><path d="M 100.0 14.0 a86.0,86.0 0 0,1 42.46469731375804,11.215312516191453" fill="none" id="id61" stroke="none" /><text fill="#e1ed5e" style="font-size:6.75px; font-family:Arial;" text-anchor="middle"><textPath startOffset="22.20632615414155" xlink:href="#id61">January</textPath></text><path d="M 100.0 79.0 l 0.0 -20.46247795274759 a41.46247795274759,41.46247795274759 0 0,0 0.7137084001040876,0.006143113525479365 l -0.35222792083155924 20.45944621583067" fill="#ffeb16" stroke="none" /><path d="M 100.72285384407766 79.0124445844662 l 0.5441616070923335 -15.799351386764283 a36.808719622318684,36.808719622318684 0 0,0 0.6330384066481474,0.027259965421930404 l -0.8160408461298124 15.787643694818158" fill="#ffae10" stroke="none" /><path d="M 101.44485096284872 79.0497635885617 l 4.334552888546152 -62.8507092343149 a84.0,84.0 0 0,0 1.4416392425506352,0.11189895124614191 l -5.415782320459128 62.76678502088029" fill="#4dd2ff" stroke="none" /><path d="M 102.88285421437855 79.19881850522331 l 2.1544278187735033 -15.545234251591841 a36.69381620776697,36.69381620776697 0 0,0 0.6248974715403437,0.09209364339680744 l -2.4216942707425027 15.505846124034065" fill="#ffac0f" stroke="none" /><path d="M 103.59715602781102 79.31037775812273 l 2.6881696720617745 -15.461440817976936 a36.6933874085105,36.6933874085105 0 0,0 0.6213498850346533,0.11354771992156794 l -2.953914678199329 15.412877616704629" fill="#ffac0f" stroke="none" /><path d="M 103.95276090670814 79.375362276772 l 4.594188900221367 -23.97146802841966 a45.407741622044085,45.407741622044085 0 0,0 0.7663823286233401,0.1537290853712201 l -5.006137638311833 23.888834986971233" fill="#e1ff1b" stroke="none" /><path d="M 107.4271985657038 80.35727306442388 l 5.211320521948788 -13.782389831219485 a35.73472534668315,35.73472534668315 0 0,0 0.5734859064735872,0.22250362207363003 l -5.447789593422042 13.690643505255307" fill="#ff9f0e" stroke="none" /><path d="M 107.76421540070413 80.48803036053334 l 3.8657974604652883 -9.714996144244703 a31.455885428218373,31.455885428218373 0 0,0 0.5013710594859182,0.20452184384189515 l -4.032452389539594 9.647013414219229" fill="#ff6309" stroke="none" /><path d="M 108.09893153111575 80.62456947434976 l 1.4667543106385692 -3.508980923568873 a24.803198039774827,24.803198039774827 0 0,0 0.39250026511240904,0.16804812976816874 l -1.5269383335412934 3.4832132658379136" fill="#ff0000" stroke="none" /><path d="M 108.43124777332544 80.76684994638697 l 3.025791207731839 -6.902358689223544 a28.536442656020615,28.536442656020615 0 0,0 0.4481823363477584,0.20108635011770903 l -3.144155662546378 6.849252008589303" fill="#ff3805" stroke="none" /><line stroke="#e1ed5e" stroke-width="0.3" x1="143.23703022742887" x2="145.7803849466894" y1="26.81831364943548" y2="22.513508569990506" /><path d="M 143.74570117128098 25.957352633546492 a86.0,86.0 0 0,1 28.547481713284135,27.462654790039103" fill="none" id="id62" stroke="none" /><text fill="#e1ed5e" style="font-size:6.75px; font-family:Arial;" text-anchor="middle"><textPath startOffset="19.985693538727396" xlink:href="#id62">February</textPath></text><path d="M 112.19680574252982 82.90503203632743 l 5.013765736912283 -7.027263240817755 a29.632512700273544,29.632512700273544 0 0,0 0.4126746251143256,0.2998256653742249 l -5.133985678380398 6.939918340626855" fill="#ff4806" stroke="none" /><line stroke="#e1ed5e" stroke-width="0.3" x1="172.23445277983987" x2="176.4835382374775" y1="55.19839476539836" y2="52.563006222186495" /><path d="M 173.08426987136738 54.67131705675599 a86.0,86.0 0 0,1 12.851231095245387,41.99856678651699" fill="none" id="id63" stroke="none" /><text fill="#e1ed5e" style="font-size:6.75px; font-family:Arial;" text-anchor="middle"><textPath startOffset="22.20632615414155" xlink:href="#id63">March</textPath></text><path d="M 120.28053869075195 94.5502522615342 l 6.328192929959061 -1.7004999538964884 a27.552688444599347,27.552688444599347 0 0,0 0.11913738940973072,0.4590849605954379 l -6.356526651239095 1.5913185677522002" fill="#ff2a04" stroke="none" /><path d="M 120.45610955862082 95.25157060432595 l 6.353680635020614 -1.474865189375284 a27.522613351921677,27.522613351921677 0 0,0 0.10315162643661432,0.46240851531398147 l -6.378126648459265 1.3652785045113387" fill="#ff2904" stroke="none" /><path d="M 120.78858239683441 97.02765380044208 l 6.033694127102228 -0.8626960446671987 a27.095056134680988,27.095056134680988 0 0,0 0.06203993831942771,0.4622696016087853 l -6.047650064479492 0.7587081009937491" fill="#ff2303" stroke="none" /><line stroke="#e1ed5e" stroke-width="0.3" x1="184.98032266829074" x2="189.97916517819016" y1="98.17113171792111" y2="98.06355123074" /><path d="M 185.9800911702706 98.14961562048488 a86.0,86.0 0 0,1 -9.607161424134198,41.387399972396054" fill="none" id="id64" stroke="none" /><text fill="#e1ed5e" style="font-size:6.75px; font-family:Arial;" text-anchor="middle"><textPath startOffset="21.466115282336823" xlink:href="#id64">April</textPath></text><path d="M 120.99513854157772 99.54816195383933 l 8.381631772175592 -0.18038176390587424 a29.383572552622965,29.383572552622965 0 0,0 0.006530139236151432,0.5057664803058561 l -8.38349491852946 0.036079025539555415" fill="#ff4506" stroke="none" /><path d="M 120.81339534386255 102.79330883721812 l 11.577915991713546 1.5538404244917678 a32.681718999186764,32.681718999186764 0 0,0 -0.0796281508096267,0.556919101301089 l -11.549453789887318 -1.7529049977732662" fill="#ff740a" stroke="none" /><line stroke="#e1ed5e" stroke-width="0.3" x1="174.80103733775053" x2="179.2010983576182" y1="140.37084112569926" y2="142.7455964860345" /><path d="M 175.68104954172406 140.8457921977663 a86.0,86.0 0 0,1 -30.038265399797805,32.042727171017184" fill="none" id="id65" stroke="none" /><text fill="#e1ed5e" style="font-size:6.75px; font-family:Arial;" text-anchor="middle"><textPath startOffset="22.206326154141568" xlink:href="#id65">May</textPath></text><path d="M 117.14729908036423 112.12312394758627 l 9.462843204880961 6.690221038992315 a32.58898007033998,32.58898007033998 0 0,0 -0.32778338746307395,0.45526245644098 l -9.346280025042285 -6.852117100884427" fill="#ff730a" stroke="none" /><path d="M 116.498646956653 112.99209946851258 l 9.801781631647673 7.718555482857609 a33.476017870156205,33.476017870156205 0 0,0 -0.36039657219875887,0.4496501373241985 l -9.66746714739406 -7.886133453760058" fill="#ff7f0b" stroke="none" /><path d="M 115.80600337817218 113.82643327865902 l 9.589573013716816 8.388558971718853 a33.740794017933524,33.740794017933524 0 0,0 -0.386157202288029,0.4338517103949955 l -9.44375696178045 -8.552384851854715" fill="#ff830c" stroke="none" /><path d="M 115.32070863581623 114.36230785411682 l 8.192889030489415 7.680375449176256 a32.229942017046355,32.229942017046355 0 0,0 -0.3829123515566147,0.401482069743703 l -8.059470127553835 -7.8202646355024665" fill="#ff6e0a" stroke="none" /><path d="M 114.81725581225074 114.88116024355365 l 9.57822503589955 9.619534373577611 a34.57489728884805,34.57489728884805 0 0,0 -0.4253536362464722,0.41629805814037496 l -9.411221447277283 -9.782982534640558" fill="#ff8f0d" stroke="none" /><path d="M 114.29624159901734 115.38237550388516 l 6.469483547313908 6.96099212871653 a30.503137838893995,30.503137838893995 0 0,0 -0.38768101104167413,0.3541374117585172 l -6.34870298680537 -7.07132230706163" fill="#ff5507" stroke="none" /><path d="M 113.75828350139079 115.86535959552629 l 8.010599263685895 9.237419615694611 a33.22700379159934,33.22700379159934 0 0,0 -0.4353283739511585,0.3709962845285577 l -7.85040541315769 -9.373940290446114" fill="#ff7c0b" stroke="none" /><path d="M 112.34349029814194 116.9893568818739 l 6.707173356917138 9.231632145926694 a32.410924875637654,32.410924875637654 0 0,0 -0.45417378428775956,0.3240409360274314 l -6.547272244780493 -9.345717343798345" fill="#ff700a" stroke="none" /><path d="M 111.45004920935366 117.60387380957326 l 7.105521245283965 10.92438094074196 a34.03190435453038,34.03190435453038 0 0,0 -0.49381621751541516,0.31517687412401657 l -6.916423225721619 -11.045072243689786" fill="#ff870c" stroke="none" /><line stroke="#e1ed5e" stroke-width="0.3" x1="143.8653032363475" x2="146.44561519142675" y1="172.8068346515853" y2="177.08958963109032" /><path d="M 144.38136562736335 173.6633856474863 a86.0,86.0 0 0,1 -40.68145358897372,12.25698825130547" fill="none" id="id66" stroke="none" /><text fill="#e1ed5e" style="font-size:6.75px; font-family:Arial;" text-anchor="middle"><textPath startOffset="21.466115282336833" xlink:href="#id66">June</textPath></text><path d="M 108.92500713936063 119.00905698771935 l 2.383395335142587 5.076309412704351 a26.607984537879027,26.607984537879027 0 0,0 -0.41626545184851954,0.19108705241253268 l -2.295661887526648 -5.116583535450958" fill="#ff1b02" stroke="none" /><path d="M 106.91757812671514 119.82793768551818 l 4.150522522561453 11.896692806672677 a33.59992606909371,33.59992606909371 0 0,0 -0.5477272221201086,0.1858188121004016 l -3.9451255675041175 -11.966374605671202" fill="#ff810b" stroke="none" /><path d="M 106.57524785965236 119.94407469862006 l 2.562904295482677 7.773814129224808 a29.18539336522924,29.18539336522924 0 0,0 -0.4784718081320436,0.15319156332218598 l -2.428711142259693 -7.816778539206702" fill="#ff4206" stroke="none" /><path d="M 105.53697534728816 120.25689768951611 l 2.1177109567158383 7.747597107718798 a29.031809300508012,29.031809300508012 0 0,0 -0.48318546728579076,0.1276136735145503 l -1.9840350466185501 -7.782902130536933" fill="#ff3f06" stroke="none" /><path d="M 103.41894727170886 120.7198165907248 l 1.8713220299309212 11.34075671865268 a32.49411193139212,32.49411193139212 0 0,0 -0.5526538774182783,0.08631316975169803 l -1.6758322889041257 -11.371288195751484" fill="#ff720a" stroke="none" /><line stroke="#e1ed5e" stroke-width="0.3" x1="102.19456741930631" x2="102.32365962044197" y1="184.97166512339345" y2="189.96999836594603" /><path d="M 102.22038585953345 185.97133177190398 a86.0,86.0 0 0,1 -42.740103519485714,-10.115201625700543" fill="none" id="id67" stroke="none" /><text fill="#e1ed5e" style="font-size:6.75px; font-family:Arial;" text-anchor="middle"><textPath startOffset="22.20632615414155" xlink:href="#id67">July</textPath></text><line stroke="#e1ed5e" stroke-width="0.3" x1="58.666819895761336" x2="56.23545636021788" y1="174.27360380694188" y2="178.64263932499728" /><path d="M 58.180547188652646 175.14741091055294 a86.0,86.0 0 0,1 -31.652253787137756,-30.449443065178592" fill="none" id="id68" stroke="none" /><text fill="#e1ed5e" style="font-size:6.75px; font-family:Arial;" text-anchor="middle"><textPath startOffset="22.20632615414155" xlink:href="#id68">August</textPath></text><line stroke="#e1ed5e" stroke-width="0.3" x1="26.63291911575756" x2="22.317208475507996" y1="142.92168965132927" y2="145.44649492493687" /><path d="M 25.769776987707644 143.4266507060508 a86.0,86.0 0 0,1 -11.730757126820373,-40.83630448921669" fill="none" id="id69" stroke="none" /><text fill="#e1ed5e" style="font-size:6.75px; font-family:Arial;" text-anchor="middle"><textPath startOffset="21.46611528233685" xlink:href="#id69">September</textPath></text><line stroke="#e1ed5e" stroke-width="0.3" x1="15.007084014347285" x2="10.007500721073583" y1="101.09737516637583" y2="101.16192664675087" /><path d="M 14.007167355692545 101.11028546245083 a86.0,86.0 0 0,1 10.666146001902534,-42.60595125391555" fill="none" id="id70" stroke="none" /><text fill="#e1ed5e" style="font-size:6.75px; font-family:Arial;" text-anchor="middle"><textPath startOffset="22.20632615414155" xlink:href="#id70">October</textPath></text><line stroke="#e1ed5e" stroke-width="0.3" x1="26.266209847984243" x2="21.928928074336255" y1="57.711370442889674" y2="55.22380399835377" /><path d="M 25.398753493254645 57.213857153982495 a86.0,86.0 0 0,1 29.58750427330803,-30.492523968695096" fill="none" id="id71" stroke="none" /><text fill="#e1ed5e" style="font-size:6.75px; font-family:Arial;" text-anchor="middle"><textPath startOffset="21.46611528233685" xlink:href="#id71">November</textPath></text><line stroke="#e1ed5e" stroke-width="0.3" x1="56.762969772571076" x2="54.21961505331055" y1="26.818313649435495" y2="22.513508569990535" /><path d="M 56.25429882871897 25.957352633546506 a86.0,86.0 0 0,1 42.265352541879196,-11.944610805530505" fill="none" id="id72" stroke="none" /><text fill="#e1ed5e" style="font-size:6.75px; font-family:Arial;" text-anchor="middle"><textPath startOffset="22.20632615414155" xlink:href="#id72">December</textPath></text></svg>