<?xml version="1.0" encoding="utf-8" ?>
<svg baseProfile="full" height="200mm" version="1.1" viewBox="0,0,200,200" width="200mm" xmlns="http://www.w3.org/2000/svg" xmlns:ev="http://www.w3.org/2001/xml-events" xmlns:xlink="http://www.w3.org/1999/xlink"><defs /><rect fill="#1a1a1a" height="200" width="200" x="0" y="0" /><text alignment-baseline="middle" fill="#e1ed5e" style="dominant-baseline: central; font-size:9.0px; font-family:Arial;" text-anchor="middle" x="100.0" y="100.0">2020</text><line stroke="#e1ed5e" stroke-width="0.3" x1="100.0" x2="100.0" y1="15.0" y2="10.0" /><path d="M 100.0 14.0 a86.0,86.0 0 0,1 42.35913384403234,11.155469271406648" fill="none" id="id1" stroke="none" /><text fill="#e1ed5e" style="font-size:6.75px; font-family:Arial;" text-anchor="middle"><textPath startOffset="22.145653131862478" xlink:href="#id1">January</textPath></text><line stroke="#e1ed5e" stroke-width="0.3" x1="143.13028292997686" x2="145.6673583964461" y1="26.7553504044142" y2="22.446841604673864" /><path d="M 143.63769802327073 25.89364864446614 a86.0,86.0 0 0,1 29.32050498858742,28.57503671076993" fill="none" id="id2" stroke="none" /><text fill="#e1ed5e" style="font-size:6.75px; font-family:Arial;" text-anchor="middle"><textPath startOffset="20.669276256404974" xlink:href="#id2">February</textPath></text><line stroke="#e1ed5e" stroke-width="0.3" x1="172.87174338648825" x2="177.1583165268699" y1="56.24261187166439" y2="53.66864786411523" /><path d="M 173.72905801456457 55.72781907015455 a86.0,86.0 0 0,1 12.242430191666344,42.057860355516425" fill="none" id="id3" stroke="none" /><text fill="#e1ed5e" style="font-size:6.75px; font-family:Arial;" text-anchor="middle"><textPath startOffset="22.145653131862474" xlink:href="#id3">March</textPath></text><line stroke="#e1ed5e" stroke-width="0.3" x1="184.99686870605535" x2="189.99668451229388" y1="99.2704041080226" y2="99.22748670261217" /><path d="M 185.99683186730306 99.26182062694052 a86.0,86.0 0 0,1 -10.086455211305974,41.156179273409016" fill="none" id="id4" stroke="none" /><text fill="#e1ed5e" style="font-size:6.75px; font-family:Arial;" text-anchor="middle"><textPath startOffset="21.40746469413373" xlink:href="#id4">April</textPath></text><line stroke="#e1ed5e" stroke-width="0.3" x1="174.33088141563837" x2="178.70328620479359" y1="141.23008692659167" y2="143.65538615756765" /><path d="M 175.20536237346943 141.71514677278685 a86.0,86.0 0 0,1 -30.301960400862466,31.631185727798858" fill="none" id="id5" stroke="none" /><text fill="#e1ed5e" style="font-size:6.75px; font-family:Arial;" text-anchor="middle"><textPath startOffset="22.145653131862474" xlink:href="#id5">May</textPath></text><line stroke="#e1ed5e" stroke-width="0.3" x1="143.1302829299769" x2="145.66735839644613" y1="173.24464959558577" y2="177.55315839532614" /><path d="M 143.63769802327073 174.10635135553383 a86.0,86.0 0 0,1 -40.68552437913181,11.842963189579606" fill="none" id="id6" stroke="none" /><text fill="#e1ed5e" style="font-size:6.75px; font-family:Arial;" text-anchor="middle"><textPath startOffset="21.407464694133747" xlink:href="#id6">June</textPath></text><line stroke="#e1ed5e" stroke-width="0.3" x1="101.45913802915013" x2="101.54496967792366" y1="184.9874750549273" y2="189.98673829345242" /><path d="M 101.47630435890484 185.9873277026323 a86.0,86.0 0 0,1 -42.54439059252881,-10.42667462771756" fill="none" id="id7" stroke="none" /><text fill="#e1ed5e" style="font-size:6.75px; font-family:Arial;" text-anchor="middle"><textPath startOffset="22.145653131862474" xlink:href="#id7">July</textPath></text><line stroke="#e1ed5e" stroke-width="0.3" x1="58.13341422392154" x2="55.67067388415222" y1="173.97424548756322" y2="178.32567169271397" /><path d="M 57.64086615596768 174.84453072859336 a86.0,86.0 0 0,1 -31.369924170532247,-30.572349798747897" fill="none" id="id8" stroke="none" /><text fill="#e1ed5e" style="font-size:6.75px; font-family:Arial;" text-anchor="middle"><textPath startOffset="22.145653131862474" xlink:href="#id8">August</textPath></text><path d="M 86.68645165197938 116.24036423190432 l -24.031541443722343 29.314573087360262 a58.9059253871414,58.9059253871414 0 0,0 -0.776508191290728,-0.6477907506455599 l 24.531223969174963 -28.897720152802833" fill="#72ff27" stroke="none" /><path d="M 86.40962598614128 116.0094264158162 l -28.136506546935014 33.144733964050076 a64.47684889930929,64.47684889930929 0 0,0 -0.8376479742838506,-0.7235403696813212 l 28.701334000981724 -32.65684946190403" fill="#30ff31" stroke="none" /><path d="M 86.13680546590413 115.77377054828092 l -11.864646258908692 13.49978947956464 a38.97259432696349,38.97259432696349 0 0,0 -0.49872852814667523,-0.44596612518146966 l 12.094639813878738 -13.294127824499789" fill="#ff6709" stroke="none" /><path d="M 85.86807049272751 115.53346607816431 l -13.443803264410302 14.777094795283665 a40.97744670374492,40.97744670374492 0 0,0 -0.5162577354942625,-0.4778404526930211 l 13.695490771218532 -14.544136596458268" fill="#ff880c" stroke="none" /><path d="M 84.1078160697243 113.72728997021213 l -32.437174427187706 28.018458704601084 a63.86262139675123,63.86262139675123 0 0,0 -0.7094998457404326,-0.8357890342702418 l 32.91336883643525 -27.45750288788129" fill="#35ff2f" stroke="none" /><path d="M 83.8745106332314 113.45245675266167 l -18.70307879761495 15.602773531018583 a45.35675878211319,45.35675878211319 0 0,0 -0.4936395946989608,-0.6021600408573761 l 18.96816521155254 -15.279411208462712" fill="#ffcd13" stroke="none" /><path d="M 83.64595745247003 113.17365903436017 l -34.74553470842354 27.988543253755406 a65.61626088817397,65.61626088817397 0 0,0 -0.699074297926936,-0.8832575384751414 l 35.22087543699204 -27.387965771365582" fill="#31ff42" stroke="none" /><path d="M 83.4222238831116 112.89097897827486 l -9.471925892709077 7.365426864602163 a32.99862046298556,32.99862046298556 0 0,0 -0.34388965896954693,-0.4501626025974873 l 9.596967529032918 -7.201743348763805" fill="#ff0000" stroke="none" /><path d="M 82.98947788004972 112.3143062007846 l -20.7623028912683 15.030306150136008 a46.631685943682754,46.631685943682754 0 0,0 -0.46384072017752337,-0.6524500612944908 l 21.01725870997578 -14.671678862132012" fill="#ffe015" stroke="none" /><path d="M 82.576782715395 111.72311816256416 l -29.031912229688295 19.53396620121089 a55.99182423456048,55.99182423456048 0 0,0 -0.5297241474120646,-0.8020698751551617 l 29.362960816021086 -19.03271644771667" fill="#98ff23" stroke="none" /><path d="M 81.99639281039703 110.81064883170644 l -19.755184309281326 11.862420565174942 a44.043097204125154,44.043097204125154 0 0,0 -0.383649541235453,-0.6515207948187955 l 19.955907560646548 -11.521548602062587" fill="#ffb911" stroke="none" /><line stroke="#e1ed5e" stroke-width="0.3" x1="26.387840678322732" x2="22.057713659400548" y1="142.50000000000003" y2="145.00000000000006" /><path d="M 25.521815274538298 143.00000000000003 a86.0,86.0 0 0,1 -11.493303480769221,-40.785679425670985" fill="none" id="id9" stroke="none" /><text fill="#e1ed5e" style="font-size:6.75px; font-family:Arial;" text-anchor="middle"><textPath startOffset="21.40746469413373" xlink:href="#id9">September</textPath></text><path d="M 81.81346652052679 110.50000000000001 l -34.83212621228891 20.110337445112048 a61.22067489022406,61.22067489022406 0 0,0 -0.5176547253036803,-0.9146462988938335 l 35.17221430261397 -19.509434376119092" fill="#55ff2b" stroke="none" /><path d="M 81.63589988554817 110.18625677009913 l -10.49935765361594 5.823816702930774 a33.00638797173734,33.00638797173734 0 0,0 -0.27058110389215384,-0.4978387549766825 l 10.597784107123422 -5.642723114479504" fill="#ff0000" stroke="none" /><path d="M 80.9802524753101 108.90220220490708 l -30.985212511516952 14.502643990487874 a55.21125658461993,55.21125658461993 0 0,0 -0.39440696202697945,-0.8618503911528677 l 31.229603938398988 -13.968604617120317" fill="#a3ff22" stroke="none" /><path d="M 80.83023694016515 108.57439118712176 l -57.50928917950453 25.7231735613653 a84.0,84.0 0 0,0 -0.577464471932128,-1.3213517208966026 l 57.942387533453626 -24.73215977069285" fill="#4dd2ff" stroke="none" /><path d="M 80.68587082218212 108.24405325689762 l -22.826862227766476 9.743430115901957 a45.81934869388996,45.81934869388996 0 0,0 -0.3025694992387369,-0.7260566516143174 l 22.9907575715417 -9.350140954846358" fill="#ffd413" stroke="none" /><path d="M 80.5471966667186 107.91128576633889 l -21.568954709024922 8.771906108379556 a44.28446142847618,44.28446142847618 0 0,0 -0.2803445228911037,-0.7066513322822604 l 21.71635790688215 -8.40035375888373" fill="#ffbc11" stroke="none" /><path d="M 79.73907114497094 105.5222062557868 l -24.173768547999416 6.588668113731114 a46.05557090399544,46.05557090399544 0 0,0 -0.20135170840620342,-0.7645652333035007 l 24.283309737210352 -6.17272237605481" fill="#ffd814" stroke="none" /><line stroke="#e1ed5e" stroke-width="0.3" x1="15.003131293944662" x2="10.003315487706104" y1="100.72959589197737" y2="100.7725132973878" /><path d="M 14.003168132696942 100.73817937305945 a86.0,86.0 0 0,1 10.791469493833604,-42.45332614584628" fill="none" id="id10" stroke="none" /><text fill="#e1ed5e" style="font-size:6.75px; font-family:Arial;" text-anchor="middle"><textPath startOffset="22.145653131862435" xlink:href="#id10">October</textPath></text><line stroke="#e1ed5e" stroke-width="0.3" x1="26.387840678322718" x2="22.05771365940052" y1="57.49999999999999" y2="54.99999999999999" /><path d="M 25.521815274538284 56.99999999999999 a86.0,86.0 0 0,1 29.574782752854787,-30.34633250058573" fill="none" id="id11" stroke="none" /><text fill="#e1ed5e" style="font-size:6.75px; font-family:Arial;" text-anchor="middle"><textPath startOffset="21.40746469413373" xlink:href="#id11">November</textPath></text><line stroke="#e1ed5e" stroke-width="0.3" x1="56.869717070023135" x2="54.33264160355391" y1="26.7553504044142" y2="22.446841604673864" /><path d="M 56.362301976729285 25.89364864446614 a86.0,86.0 0 0,1 42.16139366436587,-11.88097634709845" fill="none" id="id12" stroke="none" /><text fill="#e1ed5e" style="font-size:6.75px; font-family:Arial;" text-anchor="middle"><textPath startOffset="22.145653131862474" xlink:href="#id12">December</textPath></text></svg>