<?xml version="1.0" encoding="utf-8" ?>
<svg baseProfile="full" height="200mm" version="1.1" viewBox="0,0,200,200" width="200mm" xmlns="http://www.w3.org/2000/svg" xmlns:ev="http://www.w3.org/2001/xml-events" xmlns:xlink="http://www.w3.org/1999/xlink"><defs /><rect fill="#1a1a1a" height="200" width="200" x="0" y="0" /><text alignment-baseline="middle" fill="#e1ed5e" style="dominant-baseline: central; font-size:9.0px; font-family:Arial;" text-anchor="middle" x="100.0" y="100.0">2024</text><line stroke="#e1ed5e" stroke-width="0.3" x1="100.0" x2="100.0" y1="15.0" y2="10.0" /><path d="M 100.0 14.0 a86.0,86.0 0 0,1 42.35913384403234,11.155469271406648" fill="none" id="id49" stroke="none" /><text fill="#e1ed5e" style="font-size:6.75px; font-family:Arial;" text-anchor="middle"><textPath startOffset="22.145653131862478" xlink:href="#id49">January</textPath></text><path d="M 102.87502721639298 79.19773525538626 l 5.7868782567217 -41.87096833545911 a63.26897147207556,63.26897147207556 0 0,0 1.0745930341958634,0.15792817038332516 l -6.504796396525245 41.765459091776904" fill="#31ff3c" stroke="none" /><path d="M 104.29559338865022 79.4440306129975 l 8.77295870097537 -41.981783230966684 a63.88863401439704,63.88863401439704 0 0,0 1.0716180024159907,0.23355415595779805 l -9.492339120010493 41.824997616875166" fill="#31ff44" stroke="none" /><path d="M 105.69591212413111 79.78721728523813 l 14.122573435793242 -50.11603093762653 a73.0678752916855,73.0678752916855 0 0,0 1.2043673070841183,0.350573770454986 l -14.980800755258965 49.866213472869035" fill="#3effb6" stroke="none" /><path d="M 107.40779381753099 80.34994680014964 l 13.769208846311871 -36.52446234526244 a60.033670873540025,60.033670873540025 0 0,0 0.961189777715175,0.37180885472841957 l -14.394170886520572 36.28271360239598" fill="#48ff2c" stroke="none" /><path d="M 110.02825361518725 81.54914285379988 l 16.05588199713446 -29.541014463049404 a54.62235688068284,54.62235688068284 0 0,0 0.82000073634509,0.45484058570929725 l -16.56062692163565 29.26104096190696" fill="#86ff25" stroke="none" /><line stroke="#e1ed5e" stroke-width="0.3" x1="143.13028292997686" x2="145.6673583964461" y1="26.7553504044142" y2="22.446841604673864" /><path d="M 143.63769802327073 25.89364864446614 a86.0,86.0 0 0,1 29.32050498858742,28.57503671076993" fill="none" id="id50" stroke="none" /><text fill="#e1ed5e" style="font-size:6.75px; font-family:Arial;" text-anchor="middle"><textPath startOffset="20.669276256404974" xlink:href="#id50">February</textPath></text><path d="M 111.27062007382361 82.28071324371311 l 22.725003973065892 -35.727480768492065 a63.34239822729496,63.34239822729496 0 0,0 0.9124755024311901,0.5914555964596333 l -23.33496510775409 35.33211133032854" fill="#31ff3d" stroke="none" /><path d="M 116.57777611688842 87.10902102172516 l 33.08218607533775 -25.724907987996236 a62.9070629669289,62.9070629669289 0 0,0 0.6555755400362147,0.8581694261649584 l -33.518913592728275 25.153217648590395" fill="#30ff37" stroke="none" /><path d="M 117.62189284568427 88.57770195909679 l 17.130445460434952 -11.103747783283474 a41.4143424216336,41.4143424216336 0 0,0 0.3815686938825476,0.5998893636588531 l -17.31853184594339 10.808044744945947" fill="#ffcd13" stroke="none" /><line stroke="#e1ed5e" stroke-width="0.3" x1="172.87174338648825" x2="177.1583165268699" y1="56.24261187166439" y2="53.66864786411523" /><path d="M 173.72905801456457 55.72781907015455 a86.0,86.0 0 0,1 12.242430191666344,42.057860355516425" fill="none" id="id51" stroke="none" /><text fill="#e1ed5e" style="font-size:6.75px; font-family:Arial;" text-anchor="middle"><textPath startOffset="22.145653131862474" xlink:href="#id51">March</textPath></text><path d="M 118.70294669586156 90.45014215332178 l 36.06068104784109 -18.412840685552858 a61.48957174070475,61.48957174070475 0 0,0 0.4719473576066627,0.9442108602148078 l -36.371448318659496 17.7910979691743" fill="#39ff2e" stroke="none" /><path d="M 119.83427380445688 93.10060997987247 l 37.91487767875028 -13.18876260608769 a61.1432610592903,61.1432610592903 0 0,0 0.3363303821407025,0.9943010128065161 l -38.135693482463346 12.535959918807013" fill="#3cff2e" stroke="none" /><path d="M 120.26092885502905 94.47779374421319 l 60.782786565087164 -16.56661876736044 a84.0,84.0 0 0,0 0.3672420767810789,1.3944779825088056 l -61.058218122672976 15.520760280478832" fill="#4dd2ff" stroke="none" /><path d="M 120.43855184770803 95.1765574152323 l 40.47001772794409 -9.550813989649647 a62.581731358434276,62.581731358434276 0 0,0 0.23777821082471629,1.0476946699179464 l -40.628006800326474 8.854684985792675" fill="#30ff32" stroke="none" /><path d="M 120.65975698304385 96.23510406497455 l 40.362657029221594 -7.3554206615722775 a62.027384702991434,62.027384702991434 0 0,0 0.1819032289244343,1.049169485534153 l -40.48297507563826 6.661458143117532" fill="#33ff2f" stroke="none" /><path d="M 120.7213421655516 96.59031103205396 l 40.61668308194911 -6.683459744674119 a62.16289079666503,62.16289079666503 0 0,0 0.16422402027480681,1.054436016527492 l -40.725428594362185 5.985235546215185" fill="#31ff2f" stroke="none" /><path d="M 120.77682067341334 96.94652285012252 l 33.5884496826284 -4.936345421557034 a54.94924827155068,54.94924827155068 0 0,0 0.1291450815890493,0.9344294768279516 l -33.66823928077266 4.359027636528996" fill="#82ff25" stroke="none" /><path d="M 120.82617615685814 97.30363454192243 l 19.36950011235887 -2.5077695804467433 a40.531165937323976,40.531165937323976 0 0,0 0.08341297301307268,0.6907790747921255 l -19.409695171631608 2.174896828731205" fill="#ffc111" stroke="none" /><path d="M 120.9064616781168 98.02013634271609 l 16.333647932912474 -1.5468134412765397 a37.406726870965144,37.406726870965144 0 0,0 0.05505268639602888,0.6397956656484733 l -16.357794242006246 1.2661967282524045" fill="#ff940d" stroke="none" /><path d="M 120.98066250479742 99.09900007780936 l 20.041304477622226 -0.8606598466949096 a41.05977618360867,41.05977618360867 0 0,0 0.02419655152911989,0.7044561970168357 l -20.053125716148195 0.5164973851139539" fill="#ffc812" stroke="none" /><line stroke="#e1ed5e" stroke-width="0.3" x1="184.99686870605535" x2="189.99668451229388" y1="99.2704041080226" y2="99.22748670261217" /><path d="M 185.99683186730306 99.26182062694052 a86.0,86.0 0 0,1 -10.086455211305974,41.156179273409016" fill="none" id="id52" stroke="none" /><text fill="#e1ed5e" style="font-size:6.75px; font-family:Arial;" text-anchor="middle"><textPath startOffset="21.40746469413373" xlink:href="#id52">April</textPath></text><path d="M 120.99922638620191 100.18025310272382 l 19.79228525327382 0.169892964687586 a40.7930144032285,40.7930144032285 0 0,0 -0.012021445710994588,0.7001889451696104 l -19.78645237596416 -0.5096288258262675" fill="#ffc412" stroke="none" /><path d="M 120.86939407059847 102.33845913500097 l 31.10643632945335 3.4855410725324707 a52.301108250134625,52.301108250134625 0 0,0 -0.10763546594658628,0.8913760641255459 l -31.042018777247097 -4.019010813581425" fill="#a2ff22" stroke="none" /><path d="M 120.77682067341334 103.0534771498775 l 19.564838395793643 2.875357491969296 a40.7749989168178,40.7749989168178 0 0,0 -0.10772076656994331,0.6916445950429906 l -19.51259613708543 -3.2107902689437373" fill="#ffc412" stroke="none" /><path d="M 120.592083275326 104.11899336999214 l 34.42614691831393 6.886193544138399 a56.10810808301508,56.10810808301508 0 0,0 -0.19702573006454815,0.9428394424760088 l -34.302863477425014 -7.476149437899817" fill="#75ff27" stroke="none" /><path d="M 120.16314734710363 105.8691983318838 l 19.90993018572245 5.795490506632185 a41.736273296154394,41.736273296154394 0 0,0 -0.20614475502911309,0.686188844543941 l -19.807509110689708 -6.13641695476685" fill="#ffd113" stroke="none" /><path d="M 119.83427380445688 106.89939002012753 l 39.05631121855455 13.585812442688962 a62.35178044206213,62.35178044206213 0 0,0 -0.3603334034240974,1.0079166603567538 l -38.8173376450865 -14.254264059426637" fill="#2fff2f" stroke="none" /><path d="M 119.4528033332814 107.91128576633889 l 18.26134456474101 7.426729857597109 a40.71377745866886,40.71377745866886 0 0,0 -0.26885470022906555,0.6451534074327383 l -18.131164019975458 -7.739115774471125" fill="#ffc312" stroke="none" /><path d="M 118.70294669586154 109.54985784667822 l 17.383318194737303 8.876046131278848 a40.51829773274491,40.51829773274491 0 0,0 -0.32162253766281834,0.6167536234896293 l -17.228387588099537 -9.173145997872979" fill="#ffc011" stroke="none" /><line stroke="#e1ed5e" stroke-width="0.3" x1="174.33088141563837" x2="178.70328620479359" y1="141.23008692659167" y2="143.65538615756765" /><path d="M 175.20536237346943 141.71514677278685 a86.0,86.0 0 0,1 -30.301960400862466,31.631185727798858" fill="none" id="id53" stroke="none" /><text fill="#e1ed5e" style="font-size:6.75px; font-family:Arial;" text-anchor="middle"><textPath startOffset="22.145653131862474" xlink:href="#id53">May</textPath></text><path d="M 117.423217284605 111.72311816256416 l 16.81219522079022 11.31199524898127 a41.263542253390355,41.263542253390355 0 0,0 -0.40047301936169705,0.5843021035298979 l -16.6155324646132 -11.598932087581211" fill="#ffcb12" stroke="none" /><path d="M 117.01052211995028 112.31430620078461 l 16.604234694417727 12.020185436691863 a41.49842598151781,41.49842598151781 0 0,0 -0.42268711942365034,0.5734562569099507 l -16.395445555410248 -12.30344800287069" fill="#ffce13" stroke="none" /><path d="M 116.57777611688842 112.89097897827486 l 15.833268654250109 12.312045472214178 a41.05689058621821,41.05689058621821 0 0,0 -0.437419270362546,0.5526649587428996 l -15.619582953246 -12.58203037487176" fill="#ffc812" stroke="none" /><path d="M 116.35404254752997 113.17365903436017 l 32.20758727707165 25.944152454930563 a62.35731766948707,62.35731766948707 0 0,0 -0.6786649189099334,0.8278608516978689 l -31.757475538923092 -26.493215588326922" fill="#2fff2f" stroke="none" /><path d="M 114.91283532996324 114.78537596483092 l 12.577573246722832 12.470073266641137 a38.71152382072406,38.71152382072406 0 0,0 -0.4719268039136521,0.4678932657242427 l -12.361654522679213 -12.684146542594041" fill="#ffa70f" stroke="none" /><path d="M 114.65682725009322 115.03919595460226 l 14.028255014419253 14.394225466609164 a41.09939465588849,41.09939465588849 0 0,0 -0.509490630628949,0.48808049899820255 l -13.779091897924992 -14.632918095912947" fill="#ffc912" stroke="none" /><path d="M 114.39649973595853 115.28858382429668 l 19.53542842990477 20.745948013193363 a49.49609311653184,49.49609311653184 0 0,0 -0.6235806035669523,0.5771768971437109 l -19.176418055023852 -21.078242656469452" fill="#c5ff1e" stroke="none" /><path d="M 111.8722381534696 117.32195027204791 l 11.591189125289775 16.91189134068159 a41.50287136128149,41.50287136128149 0 0,0 -0.5911268037519939,0.3977364947153939 l -11.299166033440779 -17.1083775094541" fill="#ffce13" stroke="none" /><path d="M 111.5731344415666 117.5232005979908 l 11.004581584981693 16.662339108236132 a40.96833394197857,40.96833394197857 0 0,0 -0.5901671257114923,0.3825392006892626 l -10.716928827013191 -16.848792150629286" fill="#ffc712" stroke="none" /><path d="M 110.96478420261333 117.91015095944535 l 10.616680248733159 17.341549311809853 a41.333303520032686,41.333303520032686 0 0,0 -0.6083223895862526,0.3652801164246334 l -10.31742510258947 -17.52124342877041" fill="#ffcc13" stroke="none" /><line stroke="#e1ed5e" stroke-width="0.3" x1="143.1302829299769" x2="145.66735839644613" y1="173.24464959558577" y2="177.55315839532614" /><path d="M 143.63769802327073 174.10635135553383 a86.0,86.0 0 0,1 -40.68552437913181,11.842963189579606" fill="none" id="id54" stroke="none" /><text fill="#e1ed5e" style="font-size:6.75px; font-family:Arial;" text-anchor="middle"><textPath startOffset="21.407464694133747" xlink:href="#id54">June</textPath></text><path d="M 110.65571695917076 118.09573695890943 l 11.145754229520305 18.927927376343092 a42.96575225456638,42.96575225456638 0 0,0 -0.6387729275199852,0.36879572165471014 l -10.819188834139922 -19.116469995273974" fill="#ffe215" stroke="none" /><path d="M 108.73861861582097 119.09545874513695 l 7.077133858255308 15.464814699597692 a38.00724308465533,38.00724308465533 0 0,0 -0.5956035377889631,0.26640588668184745 l -6.810616917610718 -15.584024337189389" fill="#ff9d0e" stroke="none" /><path d="M 108.07796709384702 119.3841803445677 l 7.182923779895575 17.23640222016191 a39.67318814565397,39.67318814565397 0 0,0 -0.6308897234092109,0.25657735820510497 l -6.885979595295924 -17.357166834946305" fill="#ffb410" stroke="none" /><path d="M 107.06938296918513 119.77432235084164 l 6.963590106589895 19.47840088548956 a41.68573634726202,41.68573634726202 0 0,0 -0.6758929816331312,0.23511066440486642 l -6.628191352911743 -19.595069982463016" fill="#ffd113" stroke="none" /><path d="M 106.38641147887787 120.00534299687104 l 4.079168588599442 12.777937504792998 a34.4132510321179,34.4132510321179 0 0,0 -0.5643107307738114,0.17482490689394548 l -3.8592172249540067 -12.846078999493587" fill="#ff6709" stroke="none" /><path d="M 104.29559338865022 120.5559693870025 l 4.051944404832449 19.390020797509482 a40.80886569159636,40.80886569159636 0 0,0 -0.6869560687368761,0.13741045307414435 l -3.718491850564614 -19.456720647246488" fill="#ffc512" stroke="none" /><path d="M 103.58742460773223 120.69131181640829 l 3.5215752564317313 20.311510256891143 a41.614532281924475,41.614532281924475 0 0,0 -0.7049154920287954,0.11599357596152989 l -3.172382261349864 -20.368969831348345" fill="#ffd013" stroke="none" /><line stroke="#e1ed5e" stroke-width="0.3" x1="101.45913802915013" x2="101.54496967792366" y1="184.9874750549273" y2="189.98673829345242" /><path d="M 101.47630435890484 185.9873277026323 a86.0,86.0 0 0,1 -42.54439059252881,-10.42667462771756" fill="none" id="id55" stroke="none" /><text fill="#e1ed5e" style="font-size:6.75px; font-family:Arial;" text-anchor="middle"><textPath startOffset="22.145653131862474" xlink:href="#id55">July</textPath></text><path d="M 99.63950707515114 120.99690560180557 l -0.1730107653397333 10.077009720669714 a31.078494810009843,31.078494810009843 0 0,0 -0.5333464642023349,-0.013737113007695012 l 0.3459705436128121 -10.072554890311972" fill="#ff3405" stroke="none" /><path d="M 98.91894614982273 120.97215588758144 l -0.36128126319949494 7.00875998900492 a28.01806531279207,28.01806531279207 0 0,0 -0.48011709738715347,-0.028882652342883706 l 0.48154271271909477 -7.001525358837345" fill="#ff0400" stroke="none" /><path d="M 97.48249496171623 120.84855314841334 l -1.996701354891471 16.535551542467843 a37.655668137731254,37.655668137731254 0 0,0 -0.6410826900361479,-0.08300098914776895 l 2.280261866818413 -16.498838957119677" fill="#ff970e" stroke="none" /><path d="M 96.76829788921471 120.74984581791261 l -2.5769254300929196 16.54570982276985 a37.74518014867449,37.74518014867449 0 0,0 -0.639371891914211,-0.10520840150494197 l 2.860574825060194 -16.49903542276924" fill="#ff990e" stroke="none" /><path d="M 96.41257539226777 120.69131181640829 l -1.1597683829427825 6.689235836359609 a27.789030768564196,27.789030768564196 0 0,0 -0.4693240000900329,-0.0855264668214172 l 1.2744271165838725 -6.668341195606826" fill="#ff0000" stroke="none" /><path d="M 95.00130118170881 120.39639698878247 l -3.6843285545856364 15.03331778291152 a36.47820792146619,36.47820792146619 0 0,0 -0.6069187028754451,-0.15427636093381392 l 3.9418525506864603 -14.967856190142443" fill="#ff860c" stroke="none" /><path d="M 94.30408787586889 120.21278271476187 l -4.525842365035166 16.06061791897371 a37.686122888568406,37.686122888568406 0 0,0 -0.6211749576206815,-0.18081497706254998 l 4.800877335037454 -15.980559247608642" fill="#ff980e" stroke="none" /><path d="M 93.61358852112213 120.00534299687104 l -6.29346004089465 19.71417394128217 a41.69435414487407,41.69435414487407 0 0,0 -0.6799699172896156,-0.2235196177317965 l 6.6309526958320095 -19.60323340214835" fill="#ffd113" stroke="none" /><path d="M 92.25597844496254 119.51999308798841 l -6.260769721909342 15.78122953669468 a37.97776319780145,37.97776319780145 0 0,0 -0.6039287901843643,-0.24561258137502107 l 6.530752973284147 -15.671429698740369" fill="#ff9c0e" stroke="none" /><path d="M 91.26138138417905 119.09545874513695 l -8.745293156936643 19.11004382203763 a42.01603976207129,42.01603976207129 0 0,0 -0.6532719609876436,-0.3057642633772538 l 9.072053831795778 -18.957103327089847" fill="#ffd513" stroke="none" /><path d="M 89.97174638481275 118.45085714620012 l -7.215167743260157 13.275095986319293 a36.109163411962044,36.109163411962044 0 0,0 -0.5420773155448595,-0.3006811491427539 l 7.4419892469611195 -13.149281921743391" fill="#ff810b" stroke="none" /><line stroke="#e1ed5e" stroke-width="0.3" x1="58.13341422392154" x2="55.67067388415222" y1="173.97424548756322" y2="178.32567169271397" /><path d="M 57.64086615596768 174.84453072859336 a86.0,86.0 0 0,1 -31.369924170532247,-30.572349798747897" fill="none" id="id56" stroke="none" /><text fill="#e1ed5e" style="font-size:6.75px; font-family:Arial;" text-anchor="middle"><textPath startOffset="22.145653131862474" xlink:href="#id56">August</textPath></text><path d="M 89.34428304082925 118.09573695890944 l -8.43401438429868 14.322800276200713 a37.62152840103738,37.62152840103738 0 0,0 -0.5536943846192898,-0.33247756903204007 l 8.678641525475397 -14.175908706632754" fill="#ff970d" stroke="none" /><path d="M 88.72937992617639 117.7192867562869 l -11.283047955342981 17.73882545025161 a42.02315626914911,42.02315626914911 0 0,0 -0.6053623118726916,-0.3923885367759211 l 11.585895899472684 -17.542523071771793" fill="#ffd513" stroke="none" /><path d="M 88.1277618465304 117.32195027204791 l -8.986981011418939 13.11227387484166 a36.896463564845476,36.896463564845476 0 0,0 -0.5193702737188873,-0.362560787383954 l 9.210746376311592 -12.956068271652578" fill="#ff8c0c" stroke="none" /><path d="M 87.2517909369889 116.68781488649013 l -9.58182240315086 12.542913106355776 a36.784042250295556,36.784042250295556 0 0,0 -0.4984939343119863,-0.38763189843460566 l 9.795726282098073 -12.376580156300378" fill="#ff8b0c" stroke="none" /><path d="M 86.96720088162412 116.46651593811092 l -12.819710622320851 16.197285584397353 a41.65664640600144,41.65664640600144 0 0,0 -0.5569081613365788,-0.44860579331246747 l 13.095869554012692 -15.974831497291474" fill="#ffd013" stroke="none" /><path d="M 85.86807049272751 115.53346607816431 l -10.700317468010944 11.761523317067311 a36.90063598269384,36.90063598269384 0 0,0 -0.4648957000286361,-0.4303005194567032 l 10.900642939353547 -11.576105051478232" fill="#ff8c0c" stroke="none" /><path d="M 85.34317274990678 115.03919595460226 l -11.044684692921315 11.3328194785528 a36.82459659199931,36.82459659199931 0 0,0 -0.448923536452689,-0.4450866062054766 l 11.237600149503967 -11.141552862118663" fill="#ff8b0c" stroke="none" /><path d="M 85.08716467003676 114.78537596483092 l -21.686479941460604 21.501126525820077 a51.53853064786675,51.53853064786675 0 0,0 -0.6175130742998475,-0.6336228141643168 l 22.05237981691126 -21.125681019588022" fill="#acff21" stroke="none" /><path d="M 83.64595745247003 113.17365903436017 l -7.43769780921276 5.991282868098885 a30.5506449576321,30.5506449576321 0 0,0 -0.32548594488444793,-0.4112408585745773 l 7.53945018473877 -5.862722065609627" fill="#ff2c04" stroke="none" /><path d="M 83.4222238831116 112.89097897827486 l -25.073987704180375 19.497684497429457 a52.76262835709113,52.76262835709113 0 0,0 -0.5498569945495044,-0.7197804565119441 l 25.404996676084174 -19.064383127676642" fill="#9dff22" stroke="none" /><path d="M 82.78059297857968 112.02048342749411 l -13.621302246644651 9.508726851801592 a37.61191624216241,37.61191624216241 0 0,0 -0.36503307372357485,-0.5325941637082703 l 13.78252505718355 -9.273497953023272" fill="#ff970d" stroke="none" /><path d="M 82.18462484594161 111.11811171558189 l -14.08974520415512 8.793043080442532 a37.60838723454299,37.60838723454299 0 0,0 -0.33710015631940005,-0.5506277712874753 l 14.238613324929926 -8.5498781930305" fill="#ff970d" stroke="none" /><line stroke="#e1ed5e" stroke-width="0.3" x1="26.387840678322732" x2="22.057713659400548" y1="142.50000000000003" y2="145.00000000000006" /><path d="M 25.521815274538298 143.00000000000003 a86.0,86.0 0 0,1 -11.493303480769221,-40.785679425670985" fill="none" id="id57" stroke="none" /><text fill="#e1ed5e" style="font-size:6.75px; font-family:Arial;" text-anchor="middle"><textPath startOffset="21.40746469413373" xlink:href="#id57">September</textPath></text><path d="M 81.81346652052679 110.50000000000001 l -14.390799148078596 8.308531761997024 a37.617063523994034,37.617063523994034 0 0,0 -0.31807311370155583,-0.5620047147335433 l 14.53130562680153 -8.06027027716436" fill="#ff970d" stroke="none" /><path d="M 80.41425534168474 107.57618678355246 l -18.938343791236985 7.32575822041195 a41.305851350263985,41.305851350263985 0 0,0 -0.2501350890797918,-0.6635130416204549 l 19.06130956413121 -6.99957689859735" fill="#ffcb13" stroke="none" /><path d="M 80.16572619554312 106.89939002012753 l -9.549027777569808 3.3216475480781904 a31.11025587858456,31.11025587858456 0 0,0 -0.17112800440907033,-0.5059095375817617 l 9.604641203551246 -3.157236336022267" fill="#ff3505" stroke="none" /><path d="M 79.94057633289273 106.21446072829308 l -19.958475329250103 6.18318667517916 a41.89431824512104,41.89431824512104 0 0,0 -0.20692537425347782,-0.688787272059208 l 20.061677023507208 -5.839661799529228" fill="#ffd413" stroke="none" /><line stroke="#e1ed5e" stroke-width="0.3" x1="15.003131293944662" x2="10.003315487706104" y1="100.72959589197737" y2="100.7725132973878" /><path d="M 14.003168132696942 100.73817937305945 a86.0,86.0 0 0,1 10.791469493833604,-42.45332614584628" fill="none" id="id58" stroke="none" /><text fill="#e1ed5e" style="font-size:6.75px; font-family:Arial;" text-anchor="middle"><textPath startOffset="22.145653131862435" xlink:href="#id58">October</textPath></text><line stroke="#e1ed5e" stroke-width="0.3" x1="26.387840678322718" x2="22.05771365940052" y1="57.49999999999999" y2="54.99999999999999" /><path d="M 25.521815274538284 56.99999999999999 a86.0,86.0 0 0,1 29.574782752854787,-30.34633250058573" fill="none" id="id59" stroke="none" /><text fill="#e1ed5e" style="font-size:6.75px; font-family:Arial;" text-anchor="middle"><textPath startOffset="21.40746469413373" xlink:href="#id59">November</textPath></text><line stroke="#e1ed5e" stroke-width="0.3" x1="56.869717070023135" x2="54.33264160355391" y1="26.7553504044142" y2="22.446841604673864" /><path d="M 56.362301976729285 25.89364864446614 a86.0,86.0 0 0,1 42.16139366436587,-11.88097634709845" fill="none" id="id60" stroke="none" /><text fill="#e1ed5e" style="font-size:6.75px; font-family:Arial;" text-anchor="middle"><textPath startOffset="22.145653131862474" xlink:href="#id60">December</textPath></text></svg>