<?xml version="1.0" encoding="utf-8" ?>
<svg baseProfile="full" height="200mm" version="1.1" viewBox="0,0,200,200" width="200mm" xmlns="http://www.w3.org/2000/svg" xmlns:ev="http://www.w3.org/2001/xml-events" xmlns:xlink="http://www.w3.org/1999/xlink"><defs /><rect fill="#1a1a1a" height="200" width="200" x="0" y="0" /><text alignment-baseline="middle" fill="#e1ed5e" style="dominant-baseline: central; font-size:9.0px; font-family:Arial;" text-anchor="middle" x="100.0" y="100.0">2023</text><line stroke="#e1ed5e" stroke-width="0.3" x1="100.0" x2="100.0" y1="15.0" y2="10.0" /><path d="M 100.0 14.0 a86.0,86.0 0 0,1 42.46469731375804,11.215312516191453" fill="none" id="id37" stroke="none" /><text fill="#e1ed5e" style="font-size:6.75px; font-family:Arial;" text-anchor="middle"><textPath startOffset="22.20632615414155" xlink:href="#id37">January</textPath></text><line stroke="#e1ed5e" stroke-width="0.3" x1="143.23703022742887" x2="145.7803849466894" y1="26.81831364943548" y2="22.513508569990506" /><path d="M 143.74570117128098 25.957352633546492 a86.0,86.0 0 0,1 28.547481713284135,27.462654790039103" fill="none" id="id38" stroke="none" /><text fill="#e1ed5e" style="font-size:6.75px; font-family:Arial;" text-anchor="middle"><textPath startOffset="19.985693538727396" xlink:href="#id38">February</textPath></text><line stroke="#e1ed5e" stroke-width="0.3" x1="172.23445277983987" x2="176.4835382374775" y1="55.19839476539836" y2="52.563006222186495" /><path d="M 173.08426987136738 54.67131705675599 a86.0,86.0 0 0,1 12.851231095245387,41.99856678651699" fill="none" id="id39" stroke="none" /><text fill="#e1ed5e" style="font-size:6.75px; font-family:Arial;" text-anchor="middle"><textPath startOffset="22.20632615414155" xlink:href="#id39">March</textPath></text><line stroke="#e1ed5e" stroke-width="0.3" x1="184.98032266829074" x2="189.97916517819016" y1="98.17113171792111" y2="98.06355123074" /><path d="M 185.9800911702706 98.14961562048488 a86.0,86.0 0 0,1 -9.607161424134198,41.387399972396054" fill="none" id="id40" stroke="none" /><text fill="#e1ed5e" style="font-size:6.75px; font-family:Arial;" text-anchor="middle"><textPath startOffset="21.466115282336823" xlink:href="#id40">April</textPath></text><path d="M 120.76222939487914 103.15116336523771 l 26.370452540727616 4.002344950084012 a47.67244893710044,47.67244893710044 0 0,0 -0.13011910182741226,0.8102517712876782 l -26.297651684538913 -4.455675951064896" fill="#d5ff1c" stroke="none" /><path d="M 120.49622156327973 104.57218783832717 l 21.380536521629743 4.769456104838417 a42.906050613671184,42.906050613671184 0 0,0 -0.16700553787221614,0.7194554862124983 l -21.295270417826973 -5.13678024839948" fill="#ffea16" stroke="none" /><path d="M 120.41448212921028 104.9243191809786 l 20.104546989143014 4.849557570792627 a41.6811754567068,41.6811754567068 0 0,0 -0.17424455295148839,0.6960203739933145 l -20.018091121896465 -5.194905784183338" fill="#ffda14" stroke="none" /><path d="M 120.02730092923936 106.31721596034902 l 20.345857222826847 6.417698242471343 a42.33402814433025,42.33402814433025 0 0,0 -0.22519233282942758,0.6930707354472245 l -20.23237263898117 -6.766967877896363" fill="#ffe315" stroke="none" /><path d="M 119.41010516605496 108.01547362559984 l 18.332556219943648 7.570495863554891 a40.83418829136943,40.83418829136943 0 0,0 -0.27387882641180433,0.6473686431400648 l -18.199526412339534 -7.884939032361119" fill="#ffce13" stroke="none" /><path d="M 118.97047184881838 109.00673069616215 l 20.317324256307156 9.64618431747441 a43.49094344002973,43.49094344002973 0 0,0 -0.32690018041725466,0.6735111962946297 l -20.14827081927519 -9.994484469734314" fill="#fff216" stroke="none" /><line stroke="#e1ed5e" stroke-width="0.3" x1="174.80103733775053" x2="179.2010983576182" y1="140.37084112569926" y2="142.7455964860345" /><path d="M 175.68104954172406 140.8457921977663 a86.0,86.0 0 0,1 -30.038265399797805,32.042727171017184" fill="none" id="id41" stroke="none" /><text fill="#e1ed5e" style="font-size:6.75px; font-family:Arial;" text-anchor="middle"><textPath startOffset="22.206326154141568" xlink:href="#id41">May</textPath></text><path d="M 118.12598468904814 110.60418214915192 l 15.088489627590015 8.827166915970528 a38.48088656230845,38.48088656230845 0 0,0 -0.3393998148298394,0.5688536118956852 l -14.934308937061948 -9.085582621752316" fill="#ffad10" stroke="none" /><path d="M 116.71984013943494 112.70617746262583 l 18.618348090679753 14.148941193711243 a44.38451245009862,44.38451245009862 0 0,0 -0.46750245595531337,0.6043099442875003 l -18.372038817506372 -14.467329132111995" fill="#fffe18" stroke="none" /><path d="M 116.0416608686014 113.55231037782055 l 14.09633355333664 11.908859629243612 a39.45338877593903,39.45338877593903 0 0,0 -0.44273745656505703,0.5150036847223057 l -13.889253587200804 -12.149740413127445" fill="#ffbb11" stroke="none" /><path d="M 114.81725581225074 114.88116024355365 l 12.710887460332131 12.765707465115762 a39.014714738628,39.014714738628 0 0,0 -0.47997397194139746,0.4697555526746335 l -12.48926353601494 -12.982613120712967" fill="#ffb510" stroke="none" /><path d="M 114.29624159901734 115.38237550388516 l 8.120095375888384 8.737006529594613 a32.92775050089927,32.92775050089927 0 0,0 -0.4184967354158434,0.382286845340548 l -7.968499091005677 -8.875486141521744" fill="#ff5d08" stroke="none" /><path d="M 112.63410532772338 116.77436683061366 l 8.799955100925427 11.683745791792644 a35.62699988054747,35.62699988054747 0 0,0 -0.49303531543729096,0.36473573955081634 l -8.597534815069572 -11.83349148008323" fill="#ff850c" stroke="none" /><line stroke="#e1ed5e" stroke-width="0.3" x1="143.8653032363475" x2="146.44561519142675" y1="172.8068346515853" y2="177.08958963109032" /><path d="M 144.38136562736335 173.6633856474863 a86.0,86.0 0 0,1 -40.68145358897372,12.25698825130547" fill="none" id="id42" stroke="none" /><text fill="#e1ed5e" style="font-size:6.75px; font-family:Arial;" text-anchor="middle"><textPath startOffset="21.466115282336833" xlink:href="#id42">June</textPath></text><path d="M 109.89434966115114 118.52300852407294 l 4.9087888062436695 9.189642575290462 a31.418528600809918,31.418528600809918 0 0,0 -0.47922097809861475,0.25070576635903585 l -4.749876925618559 -9.272777760594215" fill="#ff4606" stroke="none" /><path d="M 108.92500713936063 119.00905698771935 l 3.6095451170501436 7.68784245865216 a29.493040540411627,29.493040540411627 0 0,0 -0.46140036760258013,0.2118062785073996 l -3.4766767536801444 -7.748835807493633" fill="#ff2903" stroke="none" /><path d="M 107.59598834532513 119.57807347666477 l 5.430265883603431 13.996091046195968 a36.012606440589664,36.012606440589664 0 0,0 -0.5798540316954137,0.21925117865002874 l -5.188541631147743 -14.087490474952627" fill="#ff8a0c" stroke="none" /><path d="M 106.91757812671514 119.82793768551818 l 5.062821305219603 14.511625819609907 a36.36943211367793,36.36943211367793 0 0,0 -0.5928741623046077,0.20113510542352564 l -4.812277409977769 -14.596623911931557" fill="#ff8f0d" stroke="none" /><path d="M 105.88484417918355 120.15858648285463 l 3.1628747128530876 10.834455678370867 a32.28668269669119,32.28668269669119 0 0,0 -0.5348347902607239,0.1511496540480033 l -2.975908754487758 -10.88729412575739" fill="#ff5307" stroke="none" /><path d="M 102.34483914955558 120.86867818915974 l 0.8346644051827425 7.4283742963803485 a28.475119353990497,28.475119353990497 0 0,0 -0.4875583203552339,0.05053741341051822 l -0.706673488221906 -7.441641078246625" fill="#ff1902" stroke="none" /><path d="M 101.98527174616119 120.90594882070398 l 0.7976660427835782 8.399840222726356 a29.43762922171516,29.43762922171516 0 0,0 -0.504863306496112,0.04356173043848887 l -0.6529584185459245 -8.412326205443508" fill="#ff2803" stroke="none" /><path d="M 100.90346689309514 120.98055641714683 l 0.6734734230607459 15.639584865769937 a36.654078740864605,36.654078740864605 0 0,0 -0.6305891751042462,0.021718766203733753 l -0.4041638962818475 -15.648860430399763" fill="#ff930d" stroke="none" /><line stroke="#e1ed5e" stroke-width="0.3" x1="102.19456741930631" x2="102.32365962044197" y1="184.97166512339345" y2="189.96999836594603" /><path d="M 102.22038585953345 185.97133177190398 a86.0,86.0 0 0,1 -42.740103519485714,-10.115201625700543" fill="none" id="id43" stroke="none" /><text fill="#e1ed5e" style="font-size:6.75px; font-family:Arial;" text-anchor="middle"><textPath startOffset="22.20632615414155" xlink:href="#id43">July</textPath></text><path d="M 98.73552117531835 120.96189622390904 l -0.9500073679420787 15.748746020926417 a36.777373521305435,36.777373521305435 0 0,0 -0.6315852596440796,-0.04355781732465739 l 1.2209553883650885 -15.730059859085474" fill="#ff950d" stroke="none" /><path d="M 96.93821686468263 120.77559828337769 l -1.6576389350494458 11.24783797266022 a32.36932829582333,32.36932829582333 0 0,0 -0.5505315803023871,-0.08598171058944046 l 1.8510063789603501 -11.217637954723674" fill="#ff5407" stroke="none" /><path d="M 95.86986931433489 120.58985236759428 l -3.0484367601241034 15.19730672464059 a36.50003543103312,36.50003543103312 0 0,0 -0.6149535330299729,-0.12886949192764044 l 3.309581754583463 -15.142581251986408" fill="#ff910d" stroke="none" /><path d="M 92.40401165467489 119.57807347666478 l -5.926046554331939 15.273927445959114 a37.38325020832352,37.38325020832352 0 0,0 -0.5979164692395089,-0.23792330270000034 l 6.188084099613306 -15.169657298853048" fill="#ff9e0e" stroke="none" /><path d="M 91.40352486487194 119.15986991738527 l -6.384324334563548 14.22941634074915 a36.596021499320884,36.596021499320884 0 0,0 -0.5725221090528808,-0.26281681982998967 l 6.628314439383848 -14.117412450585087" fill="#ff930d" stroke="none" /><line stroke="#e1ed5e" stroke-width="0.3" x1="58.666819895761336" x2="56.23545636021788" y1="174.27360380694188" y2="178.64263932499728" /><path d="M 58.180547188652646 175.14741091055294 a86.0,86.0 0 0,1 -31.652253787137756,-30.449443065178592" fill="none" id="id44" stroke="none" /><text fill="#e1ed5e" style="font-size:6.75px; font-family:Arial;" text-anchor="middle"><textPath startOffset="22.20632615414155" xlink:href="#id44">August</textPath></text><path d="M 89.7882731507175 118.34994917583269 l -7.669646705813665 13.781961594298034 a36.77231580899598,36.77231580899598 0 0,0 -0.5504487056057462,-0.3125591408717022 l 7.905744178340618 -13.647899287631699" fill="#ff950d" stroke="none" /><path d="M 87.65650970185807 116.9893568818739 l -6.71472048886342 9.242019881888973 a32.42376482341935,32.42376482341935 0 0,0 -0.44870635110950136,-0.3319422314969845 l 6.872811810391485 -9.125067701652222" fill="#ff5507" stroke="none" /><path d="M 85.70375840098266 115.38237550388516 l -10.49871425131343 11.296337138901894 a36.42174548118552,36.42174548118552 0 0,0 -0.45555654223074415,-0.43075714508485213 l 10.691606627934991 -11.113945357071112" fill="#ff900d" stroke="none" /><path d="M 83.72743513129214 113.27417163493432 l -16.43370325590525 13.405618559613547 a42.20795161417071,42.20795161417071 0 0,0 -0.45440294422948174,-0.566937540573006 l 16.662024112189595 -13.12075318546228" fill="#ffe115" stroke="none" /><line stroke="#e1ed5e" stroke-width="0.3" x1="26.63291911575756" x2="22.317208475507996" y1="142.92168965132927" y2="145.44649492493687" /><path d="M 25.769776987707644 143.4266507060508 a86.0,86.0 0 0,1 -11.730757126820373,-40.83630448921669" fill="none" id="id45" stroke="none" /><text fill="#e1ed5e" style="font-size:6.75px; font-family:Arial;" text-anchor="middle"><textPath startOffset="21.46611528233685" xlink:href="#id45">September</textPath></text><line stroke="#e1ed5e" stroke-width="0.3" x1="15.007084014347285" x2="10.007500721073583" y1="101.09737516637583" y2="101.16192664675087" /><path d="M 14.007167355692545 101.11028546245083 a86.0,86.0 0 0,1 10.666146001902534,-42.60595125391555" fill="none" id="id46" stroke="none" /><text fill="#e1ed5e" style="font-size:6.75px; font-family:Arial;" text-anchor="middle"><textPath startOffset="22.20632615414155" xlink:href="#id46">October</textPath></text><path d="M 79.21141760316559 97.0276538004421 l -11.100091758589484 -1.5870882835383484 a32.21297847446658,32.21297847446658 0 0,0 0.08320782080982995,-0.5482355761556565 l 11.071128044340352 1.7779229720860972" fill="#ff5207" stroke="none" /><path d="M 79.26566170972629 96.67025291283419 l -7.8150271057901985 -1.2550226285173267 a28.91515827146407,28.91515827146407 0 0,0 0.08314917056484956,-0.4907511114784254 l 7.792266073705126 1.38935952831158" fill="#ff2003" stroke="none" /><path d="M 79.62865764111835 94.90015583598534 l -11.511869193182527 -2.881927851757678 a32.867124355280076,32.867124355280076 0 0,0 0.14211692630162812,-0.5476344901829758 l 11.460555935010593 3.0796587674895175" fill="#ff5c08" stroke="none" /><path d="M 79.81627453868168 94.20196356495316 l -14.25210060173008 -4.094100403969068 a35.8284871001601,35.8284871001601 0 0,0 0.1753789137764637,-0.5912905117260093 l 14.17951579084191 4.338820302441616" fill="#ff880c" stroke="none" /><path d="M 80.02781315780177 93.51064311812611 l -11.379452048726035 -3.6974081029689847 a32.965063961766184,32.965063961766184 0 0,0 0.1799934973734633,-0.5381576471418801 l 11.314121257580801 3.892738853033187" fill="#ff5d08" stroke="none" /><path d="M 80.38941819471856 92.48833698450439 l -10.517807385757719 -4.028754757414963 a32.26299858382719,32.26299858382719 0 0,0 0.20311316728284856,-0.5169008561226303 l 10.446900668593178 4.209204618433357" fill="#ff5307" stroke="none" /><line stroke="#e1ed5e" stroke-width="0.3" x1="26.266209847984243" x2="21.928928074336255" y1="57.711370442889674" y2="55.22380399835377" /><path d="M 25.398753493254645 57.213857153982495 a86.0,86.0 0 0,1 29.58750427330803,-30.492523968695096" fill="none" id="id47" stroke="none" /><text fill="#e1ed5e" style="font-size:6.75px; font-family:Arial;" text-anchor="middle"><textPath startOffset="21.46611528233685" xlink:href="#id47">November</textPath></text><path d="M 82.7489923806493 88.02491185347247 l -4.850085982827267 -3.3667718688759187 a26.904107625871312,26.904107625871312 0 0,0 0.2673594160455993,-0.3781609334942245 l 4.791413946977789 3.4497593027019295" fill="#ff0000" stroke="none" /><path d="M 82.95767976084542 87.72973835380427 l -9.129994592933516 -6.57348418006279 a32.25022202147722,32.25022202147722 0 0,0 0.3282418190821824,-0.44772147234252496 l 9.0154901613377 6.729668096076816" fill="#ff5307" stroke="none" /><path d="M 83.39014120810768 87.1503855733568 l -9.295973049516746 -7.191492167595254 a32.7529857710254,32.7529857710254 0 0,0 0.3488129340977886,-0.4429570037961341 l 9.170806034824986 7.350441565344436" fill="#ff5a08" stroke="none" /><path d="M 84.07557802195018 86.31012108654704 l -11.26571573430765 -9.684890571766982 a35.85642811692393,35.85642811692393 0 0,0 0.40638674451733703,-0.4645703000353523 l 11.097337126212468 9.877376428005276" fill="#ff880c" stroke="none" /><path d="M 84.5562425177563 85.77008943001954 l -11.844215138806483 -10.913284697108494 a37.10544054456366,37.10544054456366 0 0,0 0.43684178263326184,-0.465992355800696 l 11.654606034202766 11.11554646978724" fill="#ff9a0e" stroke="none" /><path d="M 85.05521093208273 85.24692304244772 l -11.387750987716641 -11.241668646624731 a37.001749483064245,37.001749483064245 0 0,0 0.4513582642256516,-0.4494199883978827 l 11.192556923323675 11.436024485672723" fill="#ff980e" stroke="none" /><path d="M 85.57189188830299 84.74124197986013 l -28.587500268815038 -30.233329666340126 a62.60888600206814,62.60888600206814 0 0,0 0.7894447341778206,-0.7337028436230556 l 28.06284765084236 30.72093709603783" fill="#30ff37" stroke="none" /><path d="M 86.10567301691215 84.25364557470407 l -19.682527630706605 -22.306086249159858 a50.74833403215191,50.74833403215191 0 0,0 0.6599849872631275,-0.5723324773545212 l 19.295648844796705 22.64158371993406" fill="#afff20" stroke="none" /><path d="M 86.65592168130627 83.78471172551755 l -18.83000097001226 -22.88160235913712 a50.6333707676385,50.6333707676385 0 0,0 0.6777556400955597,-0.5480312595451738 l 18.4333419313522 23.20233971594643" fill="#b1ff20" stroke="none" /><path d="M 88.09926311788651 82.69761687909137 l -9.469115798821157 -13.767069299187451 a37.70916967117499,37.70916967117499 0 0,0 0.5379757243481582,-0.3632436105517691 l 9.23073538006646 13.928024822037887" fill="#ffa30f" stroke="none" /><path d="M 88.70189139769569 82.29822771554957 l -12.77733357589816 -20.0194083208654 a44.74946236922658,44.74946236922658 0 0,0 0.6528751529319089,-0.40883036087108154 l 12.43083927059401 20.23638302305941" fill="#fbff18" stroke="none" /><line stroke="#e1ed5e" stroke-width="0.3" x1="56.762969772571076" x2="54.21961505331055" y1="26.818313649435495" y2="22.513508569990535" /><path d="M 56.25429882871897 25.957352633546506 a86.0,86.0 0 0,1 42.265352541879196,-11.944610805530505" fill="none" id="id48" stroke="none" /><text fill="#e1ed5e" style="font-size:6.75px; font-family:Arial;" text-anchor="middle"><textPath startOffset="22.20632615414155" xlink:href="#id48">December</textPath></text><path d="M 89.94658935756843 81.56283822128135 l -30.16023192729471 -55.31148533615593 a84.0,84.0 0 0,0 1.2754198138867787,-0.6812850939930022 l 29.20366706687963 55.822449156650684" fill="#4dd2ff" stroke="none" /><path d="M 90.58718382345135 81.22770947309562 l -10.525647640937356 -20.9916471110723 a44.482727837646124,44.482727837646124 0 0,0 0.6874249192891119,-0.33731642244151966 l 10.162751454637819 21.16971869364865" fill="#ffff18" stroke="none" /><path d="M 90.91171255644093 81.06846463323043 l -14.382620889880744 -29.96000046593887 a54.23343815468227,54.23343815468227 0 0,0 0.8450648876355806,-0.3967692958279374 l 13.864777790945555 30.203134744406814" fill="#85ff25" stroke="none" /><path d="M 91.56875222667455 80.76684994638697 l -8.878489972195455 -20.253387692505463 a43.1139615901201,43.1139615901201 0 0,0 0.6822604620191285,-0.2921083241160283 l 8.52854575238602 20.403215544584278" fill="#ffed16" stroke="none" /><path d="M 92.23578459929587 80.48803036053334 l -16.03684902790978 -40.30162678342337 a64.37512706764464,64.37512706764464 0 0,0 1.0331191227181553,-0.40083416914606596 l 15.34074674019195 40.57170365645999" fill="#33ff4e" stroke="none" /><path d="M 94.63758080256005 79.69619591428918 l -16.04755737136641 -60.761094745815384 a83.84452826059919,83.84452826059919 0 0,0 1.3985710943851077,-0.3565269124431707 l 14.999277388296301 61.02832465442742" fill="#4dd4ff" stroke="none" /></svg>