<?xml version="1.0" encoding="utf-8" ?>
<svg baseProfile="full" height="200mm" version="1.1" viewBox="0,0,200,200" width="200mm" xmlns="http://www.w3.org/2000/svg" xmlns:ev="http://www.w3.org/2001/xml-events" xmlns:xlink="http://www.w3.org/1999/xlink"><defs /><rect fill="#1a1a1a" height="200" width="200" x="0" y="0" /><text alignment-baseline="middle" fill="#e1ed5e" style="dominant-baseline: central; font-size:9.0px; font-family:Arial;" text-anchor="middle" x="100.0" y="100.0">2021</text><line stroke="#e1ed5e" stroke-width="0.3" x1="100.0" x2="100.0" y1="15.0" y2="10.0" /><path d="M 100.0 14.0 a86.0,86.0 0 0,1 42.46469731375804,11.215312516191453" fill="none" id="id13" stroke="none" /><text fill="#e1ed5e" style="font-size:6.75px; font-family:Arial;" text-anchor="middle"><textPath startOffset="22.20632615414155" xlink:href="#id13">January</textPath></text><line stroke="#e1ed5e" stroke-width="0.3" x1="143.23703022742887" x2="145.7803849466894" y1="26.81831364943548" y2="22.513508569990506" /><path d="M 143.74570117128098 25.957352633546492 a86.0,86.0 0 0,1 28.547481713284135,27.462654790039103" fill="none" id="id14" stroke="none" /><text fill="#e1ed5e" style="font-size:6.75px; font-family:Arial;" text-anchor="middle"><textPath startOffset="19.985693538727396" xlink:href="#id14">February</textPath></text><line stroke="#e1ed5e" stroke-width="0.3" x1="172.23445277983987" x2="176.4835382374775" y1="55.19839476539836" y2="52.563006222186495" /><path d="M 173.08426987136738 54.67131705675599 a86.0,86.0 0 0,1 12.851231095245387,41.99856678651699" fill="none" id="id15" stroke="none" /><text fill="#e1ed5e" style="font-size:6.75px; font-family:Arial;" text-anchor="middle"><textPath startOffset="22.20632615414155" xlink:href="#id15">March</textPath></text><path d="M 119.97218684219823 93.5106431181261 l 6.490639302028495 -2.108936550372462 a27.824662037239197,27.824662037239197 0 0,0 0.14408473393108262,0.45678798126568315 l -6.525979519727785 1.99689840268036" fill="#ff2103" stroke="none" /><path d="M 120.08093135843002 93.85539295169968 l 18.354990103639516 -5.616482599795296 a40.19506547262884,40.19506547262884 0 0,0 0.19675312837120343,0.6633537376482076 l -18.44894912912242 5.2996994754005575" fill="#ffd213" stroke="none" /><path d="M 120.18372546131832 94.20196356495316 l 11.708705761709684 -3.3634773096641966 a33.18223174245669,33.18223174245669 0 0,0 0.15297519118107472,0.5503331544395487 l -11.76486772345712 3.1614328518056958" fill="#ff700a" stroke="none" /><path d="M 120.73433829027371 96.67025291283417 l 12.322970584351989 -1.9789575550488703 a33.480860428171184,33.480860428171184 0 0,0 0.0864828267052212,0.5698137730907236 l -12.355209304496508 1.7665446695660647" fill="#ff750a" stroke="none" /><path d="M 120.78858239683441 97.02765380044208 l 18.104357382718813 -2.588556392866731 a39.2884767118603,39.2884767118603 0 0,0 0.08995938815377483,0.6703019320990062 l -18.146232769930425 2.27653611870306" fill="#ffc612" stroke="none" /><path d="M 120.91429891909075 98.10471618934814 l 32.96320119554399 -2.9871726427390453 a54.09827538491154,54.09827538491154 0 0,0 0.07606092881974451,0.9281359868688173 l -33.009736608183225 2.419322738662459" fill="#80ff26" stroke="none" /><path d="M 120.94382443527127 98.46500227214037 l 14.674375989304089 -1.0755024169991323 a35.71373562778791,35.71373562778791 0 0,0 0.03965824799355065,0.6134955433041869 l -14.690714828302054 0.8227478094419102" fill="#ff940d" stroke="none" /><line stroke="#e1ed5e" stroke-width="0.3" x1="184.98032266829074" x2="189.97916517819016" y1="98.17113171792111" y2="98.06355123074" /><path d="M 185.9800911702706 98.14961562048488 a86.0,86.0 0 0,1 -9.607161424134198,41.387399972396054" fill="none" id="id16" stroke="none" /><text fill="#e1ed5e" style="font-size:6.75px; font-family:Arial;" text-anchor="middle"><textPath startOffset="21.466115282336823" xlink:href="#id16">April</textPath></text><path d="M 120.49622156327973 104.57218783832717 l 20.10141877610685 4.484117337309384 a41.59549332031597,41.59549332031597 0 0,0 -0.16190438494486176,0.6974798529110314 l -20.021253825231437 -4.829465847568981" fill="#ffe515" stroke="none" /><path d="M 119.26925614724726 108.34839909993367 l 18.068701992543104 7.828259394074518 a40.691613362958535,40.691613362958535 0 0,0 -0.2839866054766497,0.6403148250755251 l -17.931274302335183 -8.138122555642731" fill="#ffd914" stroke="none" /><path d="M 119.12269723197855 108.67885076344098 l 14.428121955729184 6.548214183985379 a36.84455149787276,36.84455149787276 0 0,0 -0.267079808053726,0.57526614601258 l -14.313267530835626 -6.7956003972767896" fill="#ffa40f" stroke="none" /><line stroke="#e1ed5e" stroke-width="0.3" x1="174.80103733775053" x2="179.2010983576182" y1="140.37084112569926" y2="142.7455964860345" /><path d="M 175.68104954172406 140.8457921977663 a86.0,86.0 0 0,1 -30.038265399797805,32.042727171017184" fill="none" id="id17" stroke="none" /><text fill="#e1ed5e" style="font-size:6.75px; font-family:Arial;" text-anchor="middle"><textPath startOffset="22.206326154141568" xlink:href="#id17">May</textPath></text><path d="M 117.35343817320211 111.8261652097733 l 17.41956252310806 11.871228181074525 a42.08001937910895,42.08001937910895 0 0,0 -0.4130636676861546,0.5950490210459976 l -17.21263794825977 -12.16931846430754" fill="#ffeb16" stroke="none" /><path d="M 116.71984013943494 112.70617746262583 l 11.550438060257502 8.777710464979329 a35.5072678472155,35.5072678472155 0 0,0 -0.37399836128648284,0.48344329744923165 l -11.397632881752951 -8.975231756541813" fill="#ff920d" stroke="none" /><path d="M 116.498646956653 112.99209946851258 l 37.1851953522037 29.28202282533772 a68.33049349124886,68.33049349124886 0 0,0 -0.7356333637535122,0.9178157300830396 l -36.67564407639533 -29.91776638899901" fill="#38ff84" stroke="none" /><path d="M 116.0416608686014 113.55231037782055 l 20.783600878636143 17.558394494383684 a48.2076328022643,48.2076328022643 0 0,0 -0.5409757031292862,0.6292769593482175 l -20.478282665936078 -17.913548552893428" fill="#c5ff1e" stroke="none" /><path d="M 115.56566222782051 114.09645910891815 l 28.494740088909044 25.80519431834024 a59.44292219046023,59.44292219046023 0 0,0 -0.6933693957040019,0.7525155369178925 l -28.04632428520932 -26.291861110059468" fill="#45ff2d" stroke="none" /><path d="M 115.07121518719521 114.62390073753431 l 13.980599225329422 13.56565431407098 a40.48035245235964,40.48035245235964 0 0,0 -0.48954119077775576,0.4959026416848872 l -13.745017409496132 -13.80429744973653" fill="#ffd614" stroke="none" /><path d="M 114.81725581225074 114.88116024355365 l 16.236602809135594 16.3066286548088 a44.01159292329545,44.01159292329545 0 0,0 -0.5414474822738351,0.5299203209937577 l -15.953505374485966 -16.583699078725132" fill="#faff18" stroke="none" /><path d="M 114.55890576462653 115.13401014063108 l 7.484218514468468 7.779859333100793 a31.795357243516683,31.795357243516683 0 0,0 -0.3976905228864048,0.37604121197996276 l -7.349192157191255 -7.9075351818266775" fill="#ff5c08" stroke="none" /><path d="M 114.29624159901734 115.38237550388516 l 39.368266550239255 42.35920712576979 a78.82873714248439,78.82873714248439 0 0,0 -1.0018774027755828,0.9151912531515518 l -38.63328959799681 -43.03059114550793" fill="#46fff8" stroke="none" /><path d="M 113.48314897796784 116.09983520530334 l 19.784790227332035 23.62444134912692 a51.81480412720274,51.81480412720274 0 0,0 -0.6887171245480052,0.5667673058798899 l -19.37520297423934 -23.96150377386399" fill="#9aff23" stroke="none" /><path d="M 113.20401910651253 116.32954008644616 l 23.524810408749683 29.093364035368026 a58.414442875206134,58.414442875206134 0 0,0 -0.7873223987103529,0.6254965302342266 l -23.02053051732198 -29.493994479607377" fill="#50ff2b" stroke="none" /><path d="M 112.92097659922987 116.55440617244103 l 12.281166680173142 15.734679181073124 a40.96013987820454,40.96013987820454 0 0,0 -0.5595374956164232,0.4290294917358476 l -12.008500456063224 -15.943748014636343" fill="#ffdc14" stroke="none" /><path d="M 112.34349029814194 116.9893568818739 l 37.03047089442582 50.96807064562168 a84.0,84.0 0 0,0 -1.1770906886044616,0.8398229526231229 l -36.14765287797247 -51.597937860089026" fill="#4dd2ff" stroke="none" /><path d="M 111.45004920935366 117.60387380957326 l 11.000437826400619 16.912618959560263 a41.17538878048656,41.17538878048656 0 0,0 -0.5974709652003286,0.3813342383511743 l -10.707685059153361 -17.099467626735247" fill="#ffdf14" stroke="none" /><path d="M 111.1453310114006 117.79835938074945 l 7.613148306365882 12.157696297852345 a35.34467170783404,35.34467170783404 0 0,0 -0.5184235265512825,0.3184580725374726 l -7.402745579882291 -12.286942837218195" fill="#ff8f0d" stroke="none" /><line stroke="#e1ed5e" stroke-width="0.3" x1="143.8653032363475" x2="146.44561519142675" y1="172.8068346515853" y2="177.08958963109032" /><path d="M 144.38136562736335 173.6633856474863 a86.0,86.0 0 0,1 -40.68145358897372,12.25698825130547" fill="none" id="id18" stroke="none" /><text fill="#e1ed5e" style="font-size:6.75px; font-family:Arial;" text-anchor="middle"><textPath startOffset="21.466115282336833" xlink:href="#id18">June</textPath></text><path d="M 109.89434966115114 118.52300852407294 l 8.286458141149835 15.512907875648532 a38.58737329118213,38.58737329118213 0 0,0 -0.5885660339415123,0.30790993160954794 l -8.018201204681827 -15.653247226202796" fill="#ffbc11" stroke="none" /><path d="M 106.2309692047433 120.05430185196036 l 5.363690939996234 17.26297685269025 a39.077044844672955,39.077044844672955 0 0,0 -0.644073483126766,0.19405405705074896 l -5.065742482429222 -17.352746278846723" fill="#ffc312" stroke="none" /><path d="M 105.88484417918355 120.15858648285463 l 4.983975319820583 17.07265213043504 a38.785259648243226,38.785259648243226 0 0,0 -0.6424849032663781,0.1815726512713161 l -4.689359248449599 -17.155913575044874" fill="#ffbf11" stroke="none" /><path d="M 102.34483914955558 120.86867818915974 l 1.9766763593409389 17.59209062806038 a38.702793624043274,38.702793624043274 0 0,0 -0.6626791908336418,0.06868940766164475 l -1.6735645719016945 -17.62350940417778" fill="#ffbe11" stroke="none" /><path d="M 101.62511606390274 120.93702456842531 l 1.3682947781988788 17.62829254127209 a38.68131580286703,38.68131580286703 0 0,0 -0.6642820447897286,0.045812779062175395 l -1.0646499726302199 -17.64923366485055" fill="#ffbe11" stroke="none" /><line stroke="#e1ed5e" stroke-width="0.3" x1="102.19456741930631" x2="102.32365962044197" y1="184.97166512339345" y2="189.96999836594603" /><path d="M 102.22038585953345 185.97133177190398 a86.0,86.0 0 0,1 -42.740103519485714,-10.115201625700543" fill="none" id="id19" stroke="none" /><text fill="#e1ed5e" style="font-size:6.75px; font-family:Arial;" text-anchor="middle"><textPath startOffset="22.20632615414155" xlink:href="#id19">July</textPath></text><path d="M 100.18074693466247 120.99922214144158 l 0.23400711852418218 27.187003053438104 a48.18801012135998,48.18801012135998 0 0,0 -0.8295081063732566,0.0 l 0.23400711852416345 -27.187003053438104" fill="#c6ff1e" stroke="none" /><path d="M 99.81925306533755 120.99922214144158 l -0.1533123085686464 17.811860713780117 a38.81252050528117,38.81252050528117 0 0,0 -0.6680194974988577,-0.011500561461771128 l 0.459891495960172 -17.806582675039188" fill="#ffbf11" stroke="none" /><path d="M 99.45781275523022 120.99299961872073 l -0.4676587520874708 18.10732380550995 a39.11336192168619,39.11336192168619 0 0,0 -0.6728981733280569,-0.023175973648794715 l 0.7792772770901708 -18.09659103343506" fill="#ffc312" stroke="none" /><path d="M 97.2962882734958 120.8252237178851 l -0.6034641833111616 4.648157013186762 a25.68716680306736,25.68716680306736 0 0,0 -0.4379923812187236,-0.060701753041245365 l 0.6833851557167162 -4.637080694652912" fill="#ff0000" stroke="none" /><line stroke="#e1ed5e" stroke-width="0.3" x1="58.666819895761336" x2="56.23545636021788" y1="174.27360380694188" y2="178.64263932499728" /><path d="M 58.180547188652646 175.14741091055294 a86.0,86.0 0 0,1 -31.652253787137756,-30.449443065178592" fill="none" id="id20" stroke="none" /><text fill="#e1ed5e" style="font-size:6.75px; font-family:Arial;" text-anchor="middle"><textPath startOffset="22.20632615414155" xlink:href="#id20">August</textPath></text><path d="M 83.72743513129214 113.27417163493432 l -13.738624045166599 11.207136371849561 a38.72990965322901,38.72990965322901 0 0,0 -0.4169589923966005,-0.5202204533906943 l 13.92950094961806 -10.968988084880607" fill="#ffbe11" stroke="none" /><path d="M 83.28015986056508 112.70617746262583 l -14.53242078520058 11.04385663489672 a39.25261688773098,39.25261688773098 0 0,0 -0.4041874359383838,-0.5414751218062427 l 14.720369487834049 -10.79206863358117" fill="#ffc512" stroke="none" /><line stroke="#e1ed5e" stroke-width="0.3" x1="26.63291911575756" x2="22.317208475507996" y1="142.92168965132927" y2="145.44649492493687" /><path d="M 25.769776987707644 143.4266507060508 a86.0,86.0 0 0,1 -11.730757126820373,-40.83630448921669" fill="none" id="id21" stroke="none" /><text fill="#e1ed5e" style="font-size:6.75px; font-family:Arial;" text-anchor="middle"><textPath startOffset="21.46611528233685" xlink:href="#id21">September</textPath></text><path d="M 80.87730276802145 108.67885076344099 l -13.584249984696417 6.165222244553503 a35.917835398323106,35.917835398323106 0 0,0 -0.2506704283227939,-0.5651956408074955 l 13.68836149775049 -5.930478267253312" fill="#ff970e" stroke="none" /><path d="M 80.0844068197444 106.66101706037122 l -25.621330248224538 8.569371564690629 a48.01641524522293,48.01641524522293 0 0,0 -0.2554193172053763,-0.786099827639534 l 25.765041816446164 -8.12707283707329" fill="#c8ff1d" stroke="none" /><line stroke="#e1ed5e" stroke-width="0.3" x1="15.007084014347285" x2="10.007500721073583" y1="101.09737516637583" y2="101.16192664675087" /><path d="M 14.007167355692545 101.11028546245083 a86.0,86.0 0 0,1 10.666146001902534,-42.60595125391555" fill="none" id="id22" stroke="none" /><text fill="#e1ed5e" style="font-size:6.75px; font-family:Arial;" text-anchor="middle"><textPath startOffset="22.20632615414155" xlink:href="#id22">October</textPath></text><path d="M 80.803312248108 91.48605970444005 l -22.86643081895257 -10.141511352442881 a46.01447402824356,46.01447402824356 0 0,0 0.3273550383795057,-0.7212834345145674 l 22.68847346360971 10.53361679579952" fill="#e0ff1b" stroke="none" /><path d="M 80.95270993114464 91.15688171328213 l -25.745923267295048 -11.953104301473685 a49.38537065686043,49.38537065686043 0 0,0 0.36460938402067655,-0.7679603497333946 l 25.53635568943262 12.394507066847611" fill="#b7ff1f" stroke="none" /><line stroke="#e1ed5e" stroke-width="0.3" x1="26.266209847984243" x2="21.928928074336255" y1="57.711370442889674" y2="55.22380399835377" /><path d="M 25.398753493254645 57.213857153982495 a86.0,86.0 0 0,1 29.58750427330803,-30.492523968695096" fill="none" id="id23" stroke="none" /><text fill="#e1ed5e" style="font-size:6.75px; font-family:Arial;" text-anchor="middle"><textPath startOffset="21.46611528233685" xlink:href="#id23">November</textPath></text><path d="M 82.15384107792192 88.93136811851018 l -28.65067457056977 -17.769861366956324 a54.713930746051254,54.713930746051254 0 0,0 0.5032962629069833,-0.7960938210598794 l 28.340550711416824 18.260402835730417" fill="#79ff26" stroke="none" /><path d="M 82.34701348167596 88.62581576622439 l -29.651273247941226 -19.104928468507346 a56.27316681290266,56.27316681290266 0 0,0 0.5316564587973766,-0.8097492616014583 l 29.31802015378593 19.612495794086474" fill="#67ff28" stroke="none" /><path d="M 85.31137513191541 84.99185889309783 l -25.501533459693384 -26.056258910734513 a57.458974714315445,57.458974714315445 0 0,0 0.7128107484728096,-0.6857233752716196 l 25.04923946760815 26.491365372768445" fill="#5aff2a" stroke="none" /><path d="M 85.83668400450813 84.49514656593479 l -27.130359940287516 -29.70012492988819 a61.226283091289005,61.226283091289005 0 0,0 0.7842474962807289,-0.7041051455199543 l 26.615101456410816 30.16272908417742" fill="#33ff2f" stroke="none" /><path d="M 87.51073957382395 83.11751280151077 l -19.876601239252462 -26.868401692372952 a54.42140461331574,54.42140461331574 0 0,0 0.7578949842747666,-0.5506429378375738 l 19.411160938623915 27.206563865027196" fill="#7cff26" stroke="none" /><line stroke="#e1ed5e" stroke-width="0.3" x1="56.762969772571076" x2="54.21961505331055" y1="26.818313649435495" y2="22.513508569990535" /><path d="M 56.25429882871897 25.957352633546506 a86.0,86.0 0 0,1 42.265352541879196,-11.944610805530505" fill="none" id="id24" stroke="none" /><text fill="#e1ed5e" style="font-size:6.75px; font-family:Arial;" text-anchor="middle"><textPath startOffset="22.20632615414155" xlink:href="#id24">December</textPath></text></svg>